<?xml version="1.0" encoding="UTF-8"?>
<svg width="398px" height="94px" viewBox="0 0 398 94" version="1.1" xmlns="http://www.w3.org/2000/svg" xmlns:xlink="http://www.w3.org/1999/xlink">
    <!-- Generator: Sketch 51.3 (57544) - http://www.bohemiancoding.com/sketch -->
    <title>future is flavor lockup</title>
    <desc>Created with Sketch.</desc>
    <defs>
        <polygon id="path-1" points="0 122.163265 417.188409 122.163265 417.188409 0.67902415 0 0.67902415"></polygon>
    </defs>
    <g id="Page-1" stroke="none" stroke-width="1" fill="none" fill-rule="evenodd">
        <g id="1.0_LP_Desktop_DanBarber" transform="translate(-149.000000, -332.000000)">
            <g id="module_hero" transform="translate(0.000000, 73.000000)">
                <g id="Hero_video">
                    <g id="future-is-flavor-lockup" transform="translate(136.000000, 243.000000)">
                        <rect id="Rectangle-5" fill-rule="nonzero" x="6" y="0" width="448" height="124"></rect>
                        <g transform="translate(0.000000, 16.000000)">
                            <polygon id="Fill-1" fill="#FFFFFF" points="13 2 13 6.42799636 22.128824 6.42799636 22.128824 33 26.8701592 33 26.8701592 6.42799636 36 6.42799636 36 2"></polygon>
                            <polygon id="Fill-2" fill="#FFFFFF" points="66.2098308 2 66.2098308 15.1531619 52.7901692 15.1531619 52.7901692 2 48 2 48 33 52.7901692 33 52.7901692 19.5811583 66.2098308 19.5811583 66.2098308 33 71 33 71 2"></polygon>
                            <polygon id="Fill-3" fill="#FFFFFF" points="84 2 84 33 104 33 104 28.5709973 88.7114074 28.5709973 88.7114074 19.5811583 102.933495 19.5811583 102.933495 15.1531619 88.7114074 15.1531619 88.7114074 6.42799636 103.466747 6.42799636 103.466747 2"></polygon>
                            <polygon id="Fill-4" fill="#FFFFFF" points="140 2 140 33 144.6633 33 144.6633 19.5811583 158.471306 19.5811583 158.471306 15.1531619 144.6633 15.1531619 144.6633 6.42799636 159 6.42799636 159 2"></polygon>
                            <g id="Group-33">
                                <path d="M192.636673,0.94839415 L192.636673,32.3077044 L187.893237,32.3077044 L187.893237,29.0825941 L187.624741,29.4857329 C186.371758,31.4566336 184.22277,32.5764635 181.582556,32.5764635 C178.3606,32.5764635 175.898366,31.3670472 174.287388,29.4857329 C172.631661,27.6044186 171.735656,25.0949816 171.735656,22.2730101 L171.735656,0.94839415 L176.480109,0.94839415 L176.480109,22.5417693 C176.480109,25.9908455 178.673846,28.1867302 182.209048,28.1867302 C185.745267,28.1867302 187.937987,25.7668795 187.937987,22.3625965 L187.937987,0.94839415 L192.636673,0.94839415 Z" id="Fill-5" fill="#FFFFFF"></path>
                                <polygon id="Fill-7" fill="#FFFFFF" points="213.398357 32.307908 213.398357 5.42791748 204.268464 5.42791748 204.268464 0.948597755 227.273719 0.948597755 227.273719 5.42791748 218.142809 5.42791748 218.142809 32.307908"></polygon>
                                <path d="M259.805408,0.94839415 L259.805408,32.3077044 L255.060956,32.3077044 L255.060956,29.0825941 L254.792459,29.4857329 C253.539476,31.4566336 251.391506,32.5764635 248.751291,32.5764635 C245.528318,32.5764635 243.067102,31.3670472 241.455107,29.4857329 C239.799379,27.6044186 238.904391,25.0949816 238.904391,22.2730101 L238.904391,0.94839415 L243.647827,0.94839415 L243.647827,22.5417693 C243.647827,25.9908455 245.841564,28.1867302 249.376766,28.1867302 C252.912985,28.1867302 255.105705,25.7668795 255.105705,22.3625965 L255.105705,0.94839415 L259.805408,0.94839415 Z" id="Fill-9" fill="#FFFFFF"></path>
                                <path d="M278.865801,15.7769785 L285.265982,15.7769785 C288.533704,15.7769785 290.771174,13.6716982 290.771174,10.6247428 C290.771174,7.53401218 288.623203,5.47250707 285.265982,5.47250707 L278.865801,5.47250707 L278.865801,15.7769785 Z M287.638716,20.0781435 L294.754887,32.3077044 L289.249694,32.3077044 L282.44677,20.3021095 L278.865801,20.3021095 L278.865801,32.3077044 L274.122366,32.3077044 L274.122366,0.94839415 L285.40023,0.94839415 C288.264191,0.94839415 290.726424,1.97863769 292.5164,3.68077918 C294.262643,5.38393871 295.335612,7.89235776 295.335612,10.6247428 C295.335612,13.3581459 294.352142,15.8217717 292.5164,17.5687064 C291.218668,18.8687271 289.56294,19.7197979 287.638716,20.0781435 Z" id="Fill-11" fill="#FFFFFF"></path>
                                <polygon id="Fill-13" fill="#FFFFFF" points="307.818455 32.307908 307.818455 0.948597755 327.420722 0.948597755 327.420722 5.42791748 312.56189 5.42791748 312.56189 14.2542134 326.883729 14.2542134 326.883729 18.7335331 312.56189 18.7335331 312.56189 27.8275702 327.958732 27.8275702 327.958732 32.307908"></polygon>
                                <polygon id="Fill-15" fill="#FFFFFF" points="362.859291 32.307908 362.859291 27.8275702 367.289481 27.8275702 367.289481 5.42791748 362.859291 5.42791748 362.859291 0.948597755 376.46514 0.948597755 376.46514 5.42791748 372.033933 5.42791748 372.033933 27.8275702 376.46514 27.8275702 376.46514 32.307908"></polygon>
                                <path d="M407.208481,16.852117 C408.953707,18.1511198 410.340938,20.1220204 410.340938,23.2137691 C410.340938,26.0357405 409.4907,28.3212116 407.744456,29.9785599 C406.000247,31.6359082 403.448515,32.5765653 400.181809,32.5765653 C396.779838,32.5765653 394.229123,31.367149 392.439147,29.5754211 C390.603405,27.8274684 389.484671,25.5430153 388.992427,23.3929419 L393.333118,21.7355936 C393.513133,22.4522847 393.871128,24.0200466 394.945113,25.4534289 C395.974349,26.8868113 397.630077,28.0962276 400.449289,28.0962276 C402.285031,28.0962276 403.58378,27.4701409 404.433001,26.6628453 C405.28324,25.8565677 405.596486,24.781531 405.596486,23.885667 C405.596486,21.8699732 404.656748,20.6595388 403.269517,19.8532613 C402.598276,19.4501225 401.792787,19.1365701 400.942549,18.8678109 C399.151556,18.3750857 397.854841,18.0167402 396.019099,17.300049 C394.184374,16.5833579 392.26015,15.3291483 391.00615,13.2238681 C390.334909,12.1926065 390.02268,10.8936038 390.02268,9.37063507 C390.02268,6.68304323 391.050899,4.53195173 392.706627,3.00898303 C394.363371,1.48601432 396.779838,0.679736769 399.465819,0.679736769 C402.195532,0.679736769 404.255021,1.53080752 405.82125,2.82981024 C407.387478,4.12881296 408.371965,5.96635207 408.908958,7.89245956 L404.746247,9.46022146 C403.717011,6.59243881 401.927036,5.1590565 399.37632,5.1590565 C396.511342,5.1590565 394.810865,7.04037078 394.810865,9.19146228 C394.810865,10.9831902 395.840101,12.1030201 397.228349,12.8207293 C397.89959,13.2238681 398.66033,13.5374204 399.465819,13.7603684 C400.271308,13.9853524 401.032048,14.2083004 401.703289,14.4332844 C403.269517,14.9249915 405.417488,15.5531143 407.208481,16.852117" id="Fill-17" fill="#FFFFFF"></path>
                                <polygon id="Fill-19" fill="#FFFFFF" points="212.737054 92.8943025 212.737054 61.5349923 232.071842 61.5349923 232.071842 66.014312 217.481506 66.014312 217.481506 74.840608 231.533832 74.840608 231.533832 79.3199277 217.481506 79.3199277 217.481506 92.8943025"></polygon>
                                <polygon id="Fill-21" fill="#FFFFFF" points="245.49371 92.8943025 245.49371 61.5349923 250.237145 61.5349923 250.237145 88.4139648 265.946216 88.4139648 265.946216 92.8943025"></polygon>
                                <path d="M294.898157,81.7392694 L289.617729,65.4314915 L284.336284,81.7392694 L294.898157,81.7392694 Z M303.446308,92.8948115 L298.522858,92.8948115 L296.240639,85.9508479 L282.993802,85.9508479 L280.711583,92.8948115 L275.788133,92.8948115 L286.440522,61.5344833 L292.794936,61.5344833 L303.446308,92.8948115 Z" id="Fill-23" fill="#FFFFFF"></path>
                                <polygon id="Fill-25" fill="#FFFFFF" points="334.188937 61.5347887 325.953015 92.8940989 317.941856 92.8940989 309.707968 61.5347887 314.7199 61.5347887 321.925569 89.2210567 329.175988 61.5347887"></polygon>
                                <path d="M351.593704,85.3232341 C353.518945,87.3837212 356.293407,88.6827239 359.515364,88.6827239 C362.738337,88.6827239 365.513816,87.3837212 367.43804,85.3232341 C369.362264,83.2627471 370.480999,80.3949644 370.480999,77.2146474 C370.480999,74.0333124 369.362264,71.1217546 367.43804,69.0602495 C365.513816,66.9997624 362.738337,65.7455529 359.515364,65.7455529 C356.293407,65.7455529 353.518945,66.9997624 351.593704,69.0602495 C349.66948,71.1217546 348.550745,74.0333124 348.550745,77.2146474 C348.550745,80.3949644 349.66948,83.2627471 351.593704,85.3232341 M348.282249,65.9247256 C351.102478,63.057961 355.040424,61.2662331 359.515364,61.2662331 C363.99132,61.2662331 367.929266,63.057961 370.749495,65.9247256 C373.568707,68.7925083 375.224434,72.7791029 375.224434,77.2146474 C375.224434,81.650192 373.568707,85.6367865 370.749495,88.5045692 C367.929266,91.3713338 363.99132,93.1630617 359.515364,93.1630617 C355.040424,93.1630617 351.102478,91.3713338 348.282249,88.5045692 C345.463037,85.6367865 343.80731,81.650192 343.80731,77.2146474 C343.80731,72.7791029 345.463037,68.7925083 348.282249,65.9247256" id="Fill-27" fill="#FFFFFF"></path>
                                <path d="M392.717887,76.3633731 L399.118067,76.3633731 C402.385789,76.3633731 404.623259,74.2580928 404.623259,71.2111373 C404.623259,68.1204067 402.475288,66.0589016 399.118067,66.0589016 L392.717887,66.0589016 L392.717887,76.3633731 Z M401.490801,80.664538 L408.606972,92.8940989 L403.10178,92.8940989 L396.298855,80.888504 L392.717887,80.888504 L392.717887,92.8940989 L387.974451,92.8940989 L387.974451,61.5347887 L399.253332,61.5347887 C402.117293,61.5347887 404.578509,62.5650322 406.368485,64.2671737 C408.114728,65.9703333 409.187697,68.4787523 409.187697,71.2111373 C409.187697,73.9445404 408.204227,76.4081663 406.368485,78.155101 C405.070753,79.4551217 403.415025,80.3061924 401.490801,80.664538 Z" id="Fill-29" fill="#FFFFFF"></path>
                                <mask id="mask-2" fill="white">
                                    <use xlink:href="#path-1"></use>
                                </mask>
                                <g id="Clip-32"></g>
                                <polygon id="Fill-31" fill="#FFFFFF" mask="url(#mask-2)" points="13.376 79.2183286 191.957601 79.2183286 191.957601 74.745117 13.376 74.745117"></polygon>
                            </g>
                        </g>
                    </g>
                </g>
            </g>
        </g>
    </g>
</svg>