<?xml version="1.0" encoding="UTF-8"?>
<svg width="31px" height="33px" viewBox="0 0 31 33" version="1.1" xmlns="http://www.w3.org/2000/svg" xmlns:xlink="http://www.w3.org/1999/xlink">
    <!-- Generator: Sketch 51.1 (57501) - http://www.bohemiancoding.com/sketch -->
    <title>Fill 3 Copy 2</title>
    <desc>Created with Sketch.</desc>
    <defs></defs>
    <g id="Page-1" stroke="none" stroke-width="1" fill="none" fill-rule="evenodd">
        <g id="m_EmailReceipt" transform="translate(-25.000000, -289.000000)" fill="#32B593">
            <g id="Group-22">
                <path d="M26.944221,311.424653 C27.1969993,311.424653 27.4761872,311.382528 27.7997057,311.297296 C30.0313231,310.711453 32.484593,310.267663 35.519819,309.901266 L37.1270362,309.706312 L36.1347871,311.033765 C35.7254372,311.580421 35.3189169,312.130016 34.9265446,312.691367 C34.7407337,312.958817 34.5983101,313.240962 34.4606025,313.51331 C34.2559275,313.918894 34.1078447,314.19712 33.913545,314.372481 C33.1089932,315.08862 32.6854952,315.971303 32.246906,316.886315 C32.093164,317.206668 31.9394219,317.52604 31.7611566,317.830718 C31.4536726,318.35876 31.3678412,318.925009 31.5178104,319.423661 C31.6715524,319.93211 32.0639247,320.353369 32.6223006,320.610042 C32.9052614,320.741318 33.1948246,320.806956 33.485331,320.806956 C34.2776212,320.806956 34.9708751,320.293609 35.2934504,319.467747 C35.4641701,319.030814 35.6480946,318.569389 35.8744632,318.15009 C36.2206185,317.509386 36.6073316,316.881417 36.9732942,316.292635 L37.9891234,314.657565 L38.2173784,316.589475 C38.3513132,317.719035 38.485248,318.849575 38.6286148,319.977175 C38.8295169,321.586773 39.9340072,321.761155 40.3990061,321.761155 C40.5395432,321.761155 40.6904557,321.747439 40.8508001,321.719029 C42.0128257,321.513298 42.6061001,320.593388 42.3976524,319.317857 C42.1401581,317.749405 41.8864366,316.179973 41.6383743,314.608582 L41.264866,312.242678 L42.8126615,314.022739 C43.215409,314.485143 43.6124973,314.954405 43.9916648,315.425627 C44.6858619,316.290676 45.4008094,317.231159 45.9233437,318.244138 C46.3987178,319.166008 47.0976309,319.351166 47.7192014,319.411905 C47.772964,319.416804 47.8267265,319.419743 47.8804891,319.419743 C48.4143418,319.419743 48.9048071,319.147394 49.1915407,318.689888 C49.4952519,318.206911 49.5358096,317.58678 49.3009522,317.032286 C49.169847,316.72271 49.0104458,316.435667 48.8274645,316.181932 C48.5954367,315.86158 48.3671816,315.538289 48.1323242,315.20716 C47.4834008,314.290189 46.8127837,313.342848 46.0893473,312.454287 C45.4507992,311.668591 44.7707501,310.911306 44.1274859,310.202025 L43.1390096,309.111652 L44.57928,309.014664 C45.8280802,308.931392 47.0778237,308.853998 48.3275671,308.794239 C49.3688628,308.745255 50.4111017,308.716845 51.4523973,308.688434 L51.6900844,308.681577 C52.3239165,308.663942 52.9624647,308.646308 53.6604346,308.620837 C54.0179084,308.607122 54.4612136,308.590467 54.8535859,308.37396 C55.2733111,308.144717 55.6628537,307.733256 55.8713015,307.302201 C55.9825994,307.070999 56.2712194,306.254933 55.3129256,305.459441 C54.8017098,305.035244 54.3197332,304.83735 53.7962558,304.83735 C53.5661144,304.83735 53.3312569,304.878496 53.1020587,304.959809 C52.8945541,305.032305 52.6351734,305.052878 52.4088048,305.063654 C50.1536073,305.176316 47.8974667,305.287019 45.6309509,305.385966 L44.309524,305.443766 L46.6316888,301.769023 C47.8097489,299.907649 48.9878089,298.048235 50.1517209,296.180004 C50.4620346,295.682331 50.6997217,295.064159 50.8591229,294.341163 C50.9345791,294.000237 50.8544069,293.619146 50.6327543,293.269403 C50.3111222,292.760954 49.7338822,292.350472 49.1915407,292.247607 C49.0736404,292.224095 48.9566832,292.212339 48.8425557,292.212339 C48.0936529,292.212339 47.5154697,292.676703 47.3315452,293.425171 C47.1183814,294.284342 46.6175408,295.049464 46.1336779,295.790095 C45.9506966,296.069301 45.7677153,296.349487 45.5969956,296.63555 C45.03579,297.573095 44.449118,298.494965 43.8209451,299.482472 C43.8209451,299.482472 43.1984314,300.458224 42.9447099,300.863807 L41.8515381,302.6086 L40.678194,304.494466 L40.6027378,302.251021 C40.5838738,301.684771 40.5772713,301.126359 40.5914194,300.565008 C40.654614,298.114853 40.7970376,295.552035 40.9234267,293.289976 L41.031895,291.301246 C41.0601911,290.771244 41.0375542,290.09919 40.6055674,289.602497 C40.1226477,289.048984 39.3341303,289.014695 39.086068,289.003919 L38.9238372,289 C37.5128061,289 37.4731916,290.176584 37.46093,290.559635 L37.4392363,291.260099 C37.4213154,291.848881 37.4024514,292.435704 37.3713257,293.024486 C37.2788919,294.694824 37.1807988,296.364182 37.0817625,298.041377 L36.8478483,302.032554 L35.7395852,300.496431 C35.3377809,299.939978 34.918999,299.321806 34.4624889,298.607627 C33.8975105,297.723964 33.5702192,296.857936 33.4608077,295.957619 C33.4193068,295.608856 33.3061225,295.235602 33.1278572,294.85255 C32.8015091,294.166781 32.0167646,293.668129 31.2612593,293.668129 C31.1141197,293.668129 30.9726393,293.687722 30.8396477,293.72593 C30.5689486,293.801364 29.6908269,294.17168 29.7691128,295.742091 C29.8360801,297.060727 30.1831787,298.324502 30.8000332,299.498147 C31.7969983,301.39185 33.1250276,303.244406 34.9803071,305.330124 L35.887668,306.348982 L34.560582,306.508668 C33.2297231,306.669334 31.9007506,306.830979 30.575551,307.024954 C29.6917701,307.15427 28.8136485,307.326692 27.9355269,307.497155 C27.4365727,307.594142 26.9385618,307.692109 26.436778,307.781259 C26.0066776,307.858653 25.4341536,308.079079 25.1464768,308.695292 C24.8606864,309.307586 25.0464973,309.906164 25.2511723,310.299992 C25.6529766,311.067074 26.1915453,311.424653 26.944221,311.424653" id="Fill-3-Copy-2"></path>
            </g>
        </g>
    </g>
</svg>