<?xml version="1.0" encoding="UTF-8"?>
<svg width="212px" height="31px" viewBox="0 0 212 31" version="1.1" xmlns="http://www.w3.org/2000/svg" xmlns:xlink="http://www.w3.org/1999/xlink">
    <!-- Generator: Sketch 51.1 (57501) - http://www.bohemiancoding.com/sketch -->
    <title>Logo/White</title>
    <desc>Created with Sketch.</desc>
    <defs>
        <polygon id="path-1" points="11.5743734 0.204692404 0.13951759 0.204692404 0.13951759 25.3581026 11.5743734 25.3581026"></polygon>
    </defs>
    <g id="Symbols" stroke="none" stroke-width="1" fill="none" fill-rule="evenodd">
        <g id="Module/D-Footer" transform="translate(-614.000000, -80.000000)">
            <g id="Logo/White" transform="translate(614.000000, 80.000000)">
                <g transform="translate(0.115821, 0.000000)">
                    <g id="Group-10" transform="translate(0.000000, 0.055578)">
                        <path d="M8.0939531,25.2406512 C3.72245794,25.2406512 0.239947095,21.5746629 0.0930942281,21.4187778 L0,21.3193338 L1.97464659,19.3721135 L2.06774081,19.4702136 C2.09527573,19.499778 4.91563748,22.4320312 8.0939531,22.4320312 C9.42349602,22.4320312 10.5799623,22.0140977 11.2683352,21.284394 C11.7639636,20.7589536 12.0025995,20.0803158 11.9763758,19.2699818 C11.9160612,17.4168301 10.0895787,16.7704443 7.08958439,15.9265145 C4.46590058,15.1874039 1.49081884,14.3501933 0.921763977,11.5079772 C0.650348411,10.1439823 0.971589057,8.80014494 1.82779372,7.72507505 C2.97639293,6.28179373 4.99168629,5.42039398 7.21939183,5.42039398 C10.5734064,5.42039398 13.5878237,7.32058001 13.7150088,7.40121025 L13.829082,7.47377747 L12.3802212,9.85640111 L12.2661479,9.78517773 C12.2412354,9.77039552 9.76309328,8.2303579 7.21939183,8.2303579 C5.82691197,8.2303579 4.57472904,8.71682703 3.95060436,9.50162805 C3.6110071,9.92896833 3.49824508,10.4006552 3.60707354,10.9435655 C3.83784233,12.0992657 5.77053096,12.642176 7.8159816,13.2173384 C10.8317101,14.0666436 14.5843253,15.1228997 14.715444,19.1772571 C14.7665802,20.7549221 14.2565288,22.1592322 13.237737,23.2383336 C12.0196449,24.5297613 10.1931624,25.2406512 8.0939531,25.2406512" id="Fill-1" fill="#FFFFFF"></path>
                        <path d="M63.7108051,13.9196278 C63.5049489,12.4131861 62.8703347,11.0317213 61.9144799,10.0157802 C60.8196393,8.84932939 59.3760232,8.23385188 57.742285,8.23385188 C54.6649308,8.23385188 52.1605649,10.562722 51.6019995,13.9182839 L63.7108051,13.9196278 Z M58.1972667,25.3382138 C57.9219176,25.3382138 57.6400125,25.3274631 57.3607298,25.3086494 C52.3218408,24.956564 48.663631,20.7705106 48.663631,15.3561899 C48.663631,9.74029356 52.6509486,5.34191387 57.742285,5.34191387 C60.1601126,5.34191387 62.3065246,6.26378631 63.9468187,8.00943104 C65.7339656,9.91096091 66.7016211,12.612074 66.5993486,15.4193503 L66.5482123,16.8115658 L51.5993772,16.8102219 C52.1920334,20.4399266 55.0005945,22.2447002 57.552163,22.4234306 C57.7619528,22.4382128 57.9730538,22.444932 58.1789101,22.444932 C61.1867715,22.444932 63.1247048,20.9022067 64.012378,19.9830219 L64.1067834,19.8849218 L66.1128984,21.9181477 L66.018493,22.0162479 C64.8213799,23.2566098 62.2134304,25.3382138 58.1972667,25.3382138 L58.1972667,25.3382138 Z" id="Fill-3" fill="#FFFFFF"></path>
                        <path d="M86.1124233,13.9196278 C85.9052558,12.4131861 85.2719528,11.0317213 84.316098,10.0157802 C83.2199463,8.84932939 81.7763301,8.23385188 80.142592,8.23385188 C77.0665489,8.23385188 74.5608718,10.562722 74.0036177,13.9182839 L86.1124233,13.9196278 Z M80.5975736,25.3382138 C80.3222245,25.3382138 80.0416306,25.3274631 79.7610368,25.3086494 C74.7221478,24.956564 71.0652491,20.7705106 71.0652491,15.3561899 C71.0652491,9.74029356 75.0525667,5.34191387 80.142592,5.34191387 C82.5617307,5.34191387 84.7068315,6.26378631 86.3484368,8.00943104 C88.1355837,9.91096091 89.1032392,12.612074 89.0009667,15.4193503 L88.9498304,16.8115658 L74.0009953,16.8102219 C74.5936515,20.4399266 77.4009014,22.2447002 79.9537811,22.4234306 C80.1648821,22.4382128 80.3772943,22.4462758 80.585773,22.4462758 C83.5897008,22.4462758 85.526323,20.9022067 86.4139961,19.9830219 L86.5084015,19.8849218 L88.5145166,21.9181477 L88.4201112,22.0162479 C87.2229981,23.2566098 84.6150485,25.3382138 80.5975736,25.3382138 L80.5975736,25.3382138 Z" id="Fill-5" fill="#FFFFFF"></path>
                        <g id="Group-9" transform="translate(93.624596, 0.000000)">
                            <mask id="mask-2" fill="white">
                                <use xlink:href="#path-1"></use>
                            </mask>
                            <g id="Clip-8"></g>
                            <path d="M8.82350453,25.3581026 C5.07482287,25.3581026 2.83531665,23.1474902 2.83531665,19.4452182 L2.83531665,8.86787435 L0.13951759,8.86787435 L0.13951759,5.83886493 L2.83531665,5.83886493 L2.83531665,0.204154869 L5.79073059,0.204154869 L5.79073059,5.83886493 L11.5743734,5.83886493 L11.5743734,8.86787435 L5.79204178,8.86787435 L5.79204178,19.0487862 C5.79204178,20.6385458 6.2496458,21.6706129 7.15305317,22.1154231 C7.62245787,22.3452193 8.21118052,22.4621331 8.90479808,22.4621331 C9.82918443,22.4621331 10.7745498,22.2524945 11.4052304,22.0764518 L11.5743734,22.0294175 L11.5743734,24.8917911 L11.479968,24.9226993 C10.6080291,25.2075928 9.6888875,25.3581026 8.82350453,25.3581026" id="Fill-7" fill="#FFFFFF" mask="url(#mask-2)"></path>
                        </g>
                    </g>
                    <polygon id="Fill-11" fill="#FFFFFF" points="36.3905338 24.8789681 31.747623 10.8143663 27.1060235 24.8789681 24.1270082 24.8789681 17.8516705 5.92951749 20.888378 5.92951749 25.6938758 20.3945829 30.3813669 5.92951749 33.1138792 5.92951749 37.8026814 20.3945829 42.6081793 5.92951749 45.6435756 5.92951749 39.3695491 24.8789681"></polygon>
                    <g id="Group-22" transform="translate(109.624015, 5.159902)" fill="#FFFFFF">
                        <path d="M54.5358555,8.81530433 C54.3286881,7.30886265 53.6953851,5.92739784 52.7395303,4.91145679 C51.6433785,3.74500596 50.1997624,3.12952845 48.5660242,3.12952845 C45.4899811,3.12952845 42.9843041,5.4583986 42.4270499,8.8139605 L54.5358555,8.81530433 Z M49.0210059,20.2338904 C48.7456568,20.2338904 48.4650629,20.2231397 48.184469,20.204326 C43.14558,19.8522406 39.4886814,15.6661872 39.4886814,10.2518665 C39.4886814,4.63597013 43.475999,0.237590446 48.5660242,0.237590446 C50.985163,0.237590446 53.131575,1.15946288 54.771869,2.90510761 C56.559016,4.80663748 57.5266715,7.50775058 57.424399,10.3150268 L57.3732627,11.7072423 L42.4244276,11.7058985 C43.0170838,15.3356032 45.8243337,17.1403768 48.3772134,17.3191072 C48.5883144,17.3338894 48.8007266,17.3419524 49.007894,17.3419524 C52.0118219,17.3419524 53.9497552,15.7978833 54.8374284,14.8786985 L54.9318338,14.7805984 L56.9379488,16.8138243 L56.8435434,16.9119244 C55.6464303,18.1522863 53.0384807,20.2338904 49.0210059,20.2338904 L49.0210059,20.2338904 Z" id="Fill-12"></path>
                        <path d="M76.9369492,8.81530433 C76.7297817,7.30886265 76.0964787,5.92739784 75.1406239,4.91145679 C74.0444722,3.74500596 72.600856,3.12952845 70.9684291,3.12952845 C67.8910748,3.12952845 65.3853978,5.4583986 64.8281436,8.8139605 L76.9369492,8.81530433 Z M71.4220995,20.2338904 C71.1480616,20.2338904 70.8661565,20.2231397 70.5855627,20.204326 C65.5479849,19.8522406 61.8897751,15.6661872 61.8897751,10.2518665 C61.8897751,4.63597013 65.8770926,0.237590446 70.9684291,0.237590446 C73.3862566,0.237590446 75.5326686,1.15946288 77.1729627,2.90510761 C78.9601097,4.80663748 79.9277651,7.50775058 79.8254926,10.3150268 L79.7743564,11.7072423 L64.8255212,11.7058985 C65.4181774,15.3356032 68.2254273,17.1403768 70.7783071,17.3191072 C70.9907192,17.3338894 71.2057538,17.3419524 71.4142324,17.3419524 C74.4142267,17.3419524 76.3508489,15.7978833 77.238522,14.8786985 L77.3329274,14.7805984 L79.3390425,16.8151682 L79.2446371,16.9119244 C78.047524,18.1522863 75.4382632,20.2338904 71.4220995,20.2338904 L71.4220995,20.2338904 Z" id="Fill-14"></path>
                        <path d="M26.3404984,19.7190663 L26.3404984,0.770959495 L29.1621714,0.770959495 L29.1621714,5.02151707 C30.6228329,2.13495442 33.3081425,0.366464449 36.2950249,0.366464449 C36.4051646,0.366464449 36.5166154,0.369152124 36.6280662,0.373183636 L36.7578737,0.379902823 L36.7578737,3.6413961 L36.4104093,3.6413961 C31.6521142,3.6413961 29.1621714,8.47114759 29.1621714,13.2417702 L29.1621714,19.7190663 L26.3404984,19.7190663 Z" id="Fill-16"></path>
                        <path d="M98.9305261,19.7190663 L98.9305261,8.63778342 C98.9305261,5.19621593 97.0974877,3.14014477 94.0266893,3.14014477 C90.4956646,3.14014477 88.309917,6.62068354 88.309917,9.84589321 L88.309917,19.7190663 L85.3295905,19.7190663 L85.3295905,0.769615658 L88.309917,0.769615658 L88.309917,3.65617831 C89.7469772,1.51141388 91.9668156,0.336900027 94.6101672,0.336900027 C99.0472217,0.336900027 101.913475,3.32559432 101.913475,7.94973869 L101.913475,19.7190663 L98.9305261,19.7190663 Z" id="Fill-18"></path>
                        <path d="M20.9637167,2.72395833 L18.7399447,0.470343077 C17.6739503,1.22692351 16.8688819,2.29258654 16.3811206,3.60417181 C15.8015762,2.9564422 13.1569134,0.237859213 8.97685145,0.237859213 C4.09792719,0.237859213 0.130277409,4.4346633 0.130277409,9.43373829 C0.130277409,14.4328133 3.99565466,18.4992651 9.15517279,18.4992651 C13.6984334,18.4992651 15.9720304,15.5871696 15.9720304,15.5871696 L15.9720304,15.88147 C15.9720304,18.0168275 15.4187098,19.681842 14.3278028,20.830823 C13.1516687,22.0658095 11.6149583,22.6409719 9.49345886,22.6409719 C5.74084364,22.6409719 3.73997333,20.8267915 3.18403033,20.4854568 L1.54635863,22.8412037 C2.04198705,23.1153465 4.68533866,25.5329099 9.49345886,25.5329099 C12.3846247,25.5329099 14.6267533,24.6553841 16.3483409,22.8492667 C17.9479882,21.1654385 18.7923922,18.7559381 18.7923922,15.88147 L18.8369725,7.47307958 C18.8369725,5.25306025 19.5987718,3.61089099 20.9637167,2.72395833 M9.54983987,15.7175218 C6.03979412,15.7175218 3.18271914,12.8927757 3.18271914,9.42164375 C3.18271914,5.94916801 6.03979412,3.12442187 9.54983987,3.12442187 C13.0611968,3.12442187 15.9169606,5.94916801 15.9169606,9.42164375 C15.9169606,12.8927757 13.0611968,15.7175218 9.54983987,15.7175218" id="Fill-20"></path>
                    </g>
                </g>
            </g>
        </g>
    </g>
</svg>