<?xml version="1.0" encoding="UTF-8"?>
<svg width="161px" height="212px" viewBox="0 0 161 212" version="1.1" xmlns="http://www.w3.org/2000/svg" xmlns:xlink="http://www.w3.org/1999/xlink">
    <!-- Generator: Sketch 52.2 (67145) - http://www.bohemiancoding.com/sketch -->
    <title>Group 45</title>
    <desc>Created with Sketch.</desc>
    <g id="Page-1" stroke="none" stroke-width="1" fill="none" fill-rule="evenodd">
        <g id="1.0_LP_Desktop_DanBarber" transform="translate(-639.000000, -2771.000000)">
            <g id="Group-45" transform="translate(639.000000, 2771.000000)">
                <polygon id="Fill-1" fill="#3B4245" points="36 1 49 1 49 4.88571429 40.5035714 4.88571429 40.5035714 7.60571429 48.1869601 7.60571429 48.1869601 11.2857143 40.5035714 11.2857143 40.5035714 17 36 17"></polygon>
                <g id="Group-44">
                    <path d="M63.1323109,8.512561 C64.6514831,8.512561 65.5256227,7.77895853 65.5256227,6.60977959 L65.5256227,6.56392943 C65.5256227,5.30305019 64.6054476,4.66114803 63.1092931,4.66114803 L60.1860375,4.66114803 L60.1860375,8.512561 L63.1323109,8.512561 Z M55.720592,0.809735053 L63.3394707,0.809735053 C65.8023711,0.809735053 67.5056854,1.45163722 68.5864496,2.55204092 C69.530713,3.46957715 70.0135507,4.70699818 70.0135507,6.28882851 L70.0135507,6.33467866 C70.0135507,8.78766193 68.7026089,10.4153424 66.6995285,11.2635703 L70.5440298,16.8572891 L65.3875161,16.8572891 L62.1420119,11.9971727 L60.1860375,11.9971727 L60.1860375,16.8572891 L55.720592,16.8572891 L55.720592,0.809735053 Z" id="Fill-2" fill="#3B4245"></path>
                    <path d="M89.1193091,8.87936223 L89.1193091,8.83351208 C89.1193091,6.51807928 87.4390126,4.50067249 84.9761122,4.50067249 C82.5367648,4.50067249 80.9014332,6.47222913 80.9014332,8.78766193 L80.9014332,8.83351208 C80.9014332,11.1489449 82.5828004,13.1663517 85.0221477,13.1663517 C87.4850481,13.1663517 89.1193091,11.194795 89.1193091,8.87936223 M76.3214342,8.87936223 L76.3214342,8.83351208 C76.3214342,4.22557156 80.0508467,0.488783972 85.0221477,0.488783972 C89.9945193,0.488783972 93.6768257,4.1797214 93.6768257,8.78766193 L93.6768257,8.83351208 C93.6768257,13.4414526 89.9484838,17.1782402 84.9761122,17.1782402 C80.0048112,17.1782402 76.3214342,13.4873028 76.3214342,8.87936223" id="Fill-4" fill="#3B4245"></path>
                    <polygon id="Fill-7" fill="#3B4245" points="100.605172 0.809841681 105.323277 0.809841681 109.167779 7.02253761 113.011209 0.809841681 117.729315 0.809841681 117.729315 16.8573957 113.286887 16.8573957 113.286887 7.64151469 109.167779 13.9229859 109.074637 13.9229859 104.978546 7.68736485 104.978546 16.8573957 100.605172 16.8573957"></polygon>
                    <path d="M38.6069405,48.0610915 L41.0933939,45.1037566 C42.6810841,46.3646358 44.4534517,47.0294631 46.317355,47.0294631 C47.5148138,47.0294631 48.1587758,46.6168117 48.1587758,45.9290594 L48.1587758,45.8832092 C48.1587758,45.218382 47.6293673,44.8515807 45.4432154,44.347229 C42.0130337,43.5677764 39.3659913,42.6049232 39.3659913,39.303712 L39.3659913,39.2578619 C39.3659913,36.2776018 41.7373559,34.1226446 45.6043397,34.1226446 C48.3434532,34.1226446 50.4835697,34.8562471 52.2329195,36.2546768 L50.000732,39.3954123 C48.5275953,38.3637839 46.9163521,37.813582 45.4892509,37.813582 C44.4074161,37.813582 43.8774724,38.2720836 43.8774724,38.8452105 L43.8774724,38.8910606 C43.8774724,39.6246631 44.4304339,39.9456142 46.6626214,40.4499659 C50.3690161,41.2523436 52.6697216,42.4444476 52.6697216,45.4476327 L52.6697216,45.4934829 C52.6697216,48.7717689 50.0697853,50.7204005 46.156766,50.7204005 C43.3020283,50.7204005 40.5859326,49.8263225 38.6069405,48.0610915" id="Fill-9" fill="#3B4245"></path>
                    <polygon id="Fill-11" fill="#3B4245" points="59.4375321 34.3977455 72.3965313 34.3977455 72.3965313 38.1803833 63.8569421 38.1803833 63.8569421 40.6104414 71.5903744 40.6104414 71.5903744 44.1179783 63.8569421 44.1179783 63.8569421 46.6626618 72.5116201 46.6626618 72.5116201 50.4452996 59.4375321 50.4452996"></polygon>
                    <polygon id="Fill-13" fill="#3B4245" points="79.3940376 34.3977455 92.3530368 34.3977455 92.3530368 38.1803833 83.8134476 38.1803833 83.8134476 40.6104414 91.5468799 40.6104414 91.5468799 44.1179783 83.8134476 44.1179783 83.8134476 46.6626618 92.4681256 46.6626618 92.4681256 50.4452996 79.3940376 50.4452996"></polygon>
                    <path d="M105.634071,46.5020263 C108.304131,46.5020263 110.076498,45.0348214 110.076498,42.4442877 L110.076498,42.3984375 C110.076498,39.8308289 108.304131,38.3406989 105.634071,38.3406989 L103.816203,38.3406989 L103.816203,46.5020263 L105.634071,46.5020263 Z M99.3507572,34.3975856 L105.565017,34.3975856 C111.319457,34.3975856 114.656497,37.6987967 114.656497,42.3296623 L114.656497,42.3755124 C114.656497,47.006378 111.273422,50.4451396 105.472946,50.4451396 L99.3507572,50.4451396 L99.3507572,34.3975856 Z" id="Fill-15" fill="#3B4245"></path>
                    <polygon id="Fill-17" fill="#3B4245" points="63.2128195 71.8829658 58.3796251 71.8829658 58.3796251 67.9857027 72.5114595 67.9857027 72.5114595 71.8829658 67.6782651 71.8829658 67.6782651 84.0332567 63.2128195 84.0332567"></polygon>
                    <path d="M90.6269189,76.0551699 L90.6269189,76.0093197 C90.6269189,73.6938869 88.9455518,71.6764801 86.483722,71.6764801 C84.043304,71.6764801 82.409043,73.6480368 82.409043,75.9634696 L82.409043,76.0093197 C82.409043,78.3247525 84.0893396,80.3421593 86.5297575,80.3421593 C88.9915873,80.3421593 90.6269189,78.3706027 90.6269189,76.0551699 M77.829044,76.0551699 L77.829044,76.0093197 C77.829044,71.4013792 81.5573859,67.6645916 86.5297575,67.6645916 C91.5010585,67.6645916 95.1844355,71.3555291 95.1844355,75.9634696 L95.1844355,76.0093197 C95.1844355,80.6172603 91.455023,84.3535147 86.483722,84.3535147 C81.5113504,84.3535147 77.829044,80.6631104 77.829044,76.0551699" id="Fill-19" fill="#3B4245"></path>
                    <path d="M2.21516505,204.885574 L3.15728734,202.079118 C4.64701822,202.535487 6.09927833,202.515227 7.43109666,201.993282 C8.28543029,201.658469 8.62909081,201.183973 8.43584868,200.693483 L8.42246626,200.659895 C8.23511239,200.185933 7.7544159,200.071307 6.05003102,200.322417 C3.38211198,200.724939 1.22004837,200.777187 0.290237902,198.420169 L0.277926077,198.387647 C-0.562489834,196.258814 0.522556696,194.057473 3.28361738,192.976263 C5.23959173,192.211205 6.97555912,192.136565 8.61892017,192.645715 L7.90911667,195.512416 C6.5665924,195.187733 5.26046831,195.245312 4.24233387,195.644635 C3.46990065,195.946393 3.22098766,196.422488 3.38211198,196.830874 L3.3954944,196.863929 C3.60158365,197.388007 4.08763311,197.462647 5.8230652,197.198209 C8.69493231,196.735442 10.6755303,196.943367 11.5212992,199.087662 L11.5346816,199.120716 C12.4580685,201.461207 11.1508738,203.57991 8.35662476,204.67445 C6.3176794,205.471496 4.12617447,205.591986 2.21516505,204.885574" id="Fill-21" fill="#3B4245"></path>
                    <polygon id="Fill-23" fill="#3B4245" points="13.1343624 189.425008 16.6357385 188.509071 20.5353754 194.856652 21.0176778 187.328696 23.8708095 186.582832 28.0011593 192.905355 28.2698783 185.469633 31.7032717 184.572889 30.8660676 197.61246 27.9781416 198.367388 23.7637502 192.139231 23.1786708 199.621336 20.2907448 200.375731"></polygon>
                    <polygon id="Fill-25" fill="#3B4245" points="37.5039615 183.648422 47.3314747 182.139099 47.7768416 185.008465 41.2992155 186.002774 41.5855993 187.84531 47.4508459 186.945368 47.8630244 189.60521 41.9967072 190.506219 42.2954028 192.435657 48.8592116 191.428553 49.3035079 194.296854 39.3882061 195.820038"></polygon>
                    <polygon id="Fill-27" fill="#3B4245" points="53.3798998 181.463822 63.2935958 180.693966 63.5200263 183.587857 56.9867294 184.095408 57.1323301 185.954471 63.0495005 185.494904 63.2588015 188.178737 57.3421664 188.637239 57.494726 190.584271 64.1163469 190.070856 64.3422421 192.964214 54.3407575 193.739934"></polygon>
                    <polygon id="Fill-29" fill="#3B4245" points="72.3546711 183.428714 68.6461351 183.452706 68.6263292 180.462316 79.4703709 180.392474 79.4891063 183.382331 75.7805703 183.406322 75.8426648 192.728832 72.4151596 192.751224"></polygon>
                    <path d="M83.8364118,186.680663 L83.838553,186.646009 C84.0821131,183.064899 87.0931573,180.447175 90.9178527,180.704682 C93.0847339,180.850763 94.5739295,181.621685 95.801365,182.832449 L93.6285954,185.101499 C92.7972796,184.304985 91.9440166,183.825158 90.7283576,183.742521 C88.9490312,183.622564 87.4726827,185.021527 87.3452821,186.899784 L87.3420703,186.934972 C87.2082461,188.918257 88.5036643,190.434511 90.4596386,190.566197 C91.2877427,190.622177 91.9338459,190.489425 92.4680721,190.190333 L92.5692432,188.697537 L90.1368547,188.533862 L90.3070791,186.04196 L95.98176,186.424222 L95.6054464,191.953964 C94.2286631,192.935477 92.3572656,193.639224 90.1186546,193.488345 C86.2779004,193.228172 83.5832165,190.40199 83.8364118,186.680663" id="Fill-31" fill="#3B4245"></path>
                    <path d="M107.253557,188.71641 C108.405516,188.892347 109.154396,188.437044 109.291432,187.549897 L109.29625,187.515243 C109.443992,186.558787 108.820906,185.965401 107.685542,185.793196 L105.467807,185.454118 L105.018158,188.3752 L107.253557,188.71641 Z M102.530099,182.015357 L108.309698,182.897706 C110.177884,183.182936 111.394613,183.866423 112.086752,184.826611 C112.696455,185.631654 112.918068,186.626496 112.732855,187.826597 L112.728037,187.861251 C112.441118,189.721915 111.257042,190.804725 109.638304,191.215777 L111.902074,195.904221 L107.990661,195.307636 L106.096246,191.245099 L104.611333,191.017981 L104.044989,194.704653 L100.65656,194.188573 L102.530099,182.015357 Z" id="Fill-33" fill="#3B4245"></path>
                    <polygon id="Fill-35" fill="#3B4245" points="119.340558 184.876673 128.999988 187.237423 128.306779 190.056674 121.940495 188.501501 121.494057 190.312582 127.259203 191.722208 126.615241 194.336199 120.850095 192.92764 120.382781 194.824557 126.833642 196.400523 126.140433 199.220307 116.393214 196.838765"></polygon>
                    <polygon id="Fill-37" fill="#3B4245" points="135.047129 189.038694 144.419104 192.344703 143.44647 195.080785 137.270751 192.901836 136.644454 194.659603 142.239376 196.632759 141.336866 199.169446 135.74355 197.196289 135.088882 199.036693 141.348107 201.244965 140.374937 203.980513 130.919455 200.645181"></polygon>
                    <polygon id="Fill-39" fill="#3B4245" points="150.536261 194.864223 153.38297 196.313834 154.940148 204.415983 157.913186 198.61967 160.933866 200.15725 155.305756 211.123967 152.632484 209.762324 151.015352 201.352553 147.928831 207.368519 144.908151 205.83094"></polygon>
                    <polygon id="Fill-42" fill="#3B4245" points="74.5925327 166.686104 77.8043133 166.686104 77.8043133 94.7157562 74.5925327 94.7157562"></polygon>
                    <g id="Group-41" transform="translate(144.530125, 194.596586)"></g>
                </g>
            </g>
        </g>
    </g>
</svg>