<?xml version="1.0" encoding="UTF-8"?>
<svg width="166px" height="24px" viewBox="0 0 166 24" version="1.1" xmlns="http://www.w3.org/2000/svg" xmlns:xlink="http://www.w3.org/1999/xlink">
    <!-- Generator: Sketch 51.3 (57544) - http://www.bohemiancoding.com/sketch -->
    <title>Logo/Kale</title>
    <desc>Created with Sketch.</desc>
    <defs>
        <polygon id="path-1" points="9.06295277 0.156902513 0.109244905 0.156902513 0.109244905 19.4377024 9.06295277 19.4377024"></polygon>
    </defs>
    <g id="Page-1" stroke="none" stroke-width="1" fill="none" fill-rule="evenodd">
        <g id="2.0_LP_Mobile_DanBarber" transform="translate(-23.000000, -27.000000)">
            <g id="Logo/Kale" transform="translate(23.000000, 27.000000)">
                <g id="Group-10" stroke-width="1" transform="translate(0.000000, 0.128276)">
                    <path d="M6.33771799,19.3476726 C2.9147548,19.3476726 0.187883103,16.5375889 0.0728945371,16.4180986 L0,16.341872 L1.54618553,14.8492725 L1.61908007,14.9244691 C1.64064043,14.947131 3.8490369,17.1947859 6.33771799,17.1947859 C7.37877519,17.1947859 8.28431014,16.8744282 8.82331904,16.3150897 C9.21140545,15.9123247 9.39826187,15.3921296 9.3777282,14.7709858 C9.33050075,13.3504926 7.90033047,12.8550196 5.55127834,12.2081235 C3.49688441,11.6415744 1.16733928,10.9998287 0.721758586,8.82118983 C0.509235076,7.77564917 0.760772563,6.74555984 1.43119697,5.92148838 C2.33057182,4.81517245 3.90858455,4.15488519 5.65292002,4.15488519 C8.27917672,4.15488519 10.6395224,5.6114315 10.7391107,5.67323686 L10.8284322,5.72886168 L9.69394675,7.55521005 L9.60462528,7.50061532 C9.58511829,7.48928433 7.64468624,6.30880197 5.65292002,6.30880197 C4.56258201,6.30880197 3.58209915,6.6816943 3.09339775,7.28326647 C2.82748669,7.61083487 2.7391919,7.97239623 2.82440664,8.38855231 C3.00510296,9.27442913 4.51843462,9.69058522 6.12006107,10.1314634 C8.4814334,10.7824799 11.4198019,11.5921301 11.5224703,14.6999096 C11.5625109,15.9092345 11.163131,16.9856778 10.3653978,17.8128395 C9.41160876,18.8027554 7.98143847,19.3476726 6.33771799,19.3476726" id="Fill-1" fill="#1F4F46"></path>
                    <path d="M49.8867625,10.6697881 C49.7255732,9.515058 49.2286583,8.45612617 48.4802059,7.67737864 C47.6229251,6.78326111 46.4925464,6.3114802 45.2132987,6.3114802 C42.8036722,6.3114802 40.8427065,8.096625 40.4053393,10.668758 L49.8867625,10.6697881 Z M45.5695579,19.4224571 C45.3539543,19.4224571 45.1332173,19.4142164 44.9145337,19.3997951 C40.9689886,19.1299117 38.1045413,15.9211835 38.1045413,11.7709536 C38.1045413,7.46621033 41.2266862,4.09472798 45.2132987,4.09472798 C47.1065033,4.09472798 48.7871843,4.80136925 50.0715656,6.13945528 C51.4709353,7.59703168 52.2286278,9.66751122 52.1485465,11.8193678 L52.1085059,12.8865404 L40.4032859,12.8855103 C40.8673469,15.6677815 43.0665032,17.0511915 45.0644295,17.1881934 C45.2286989,17.1995243 45.393995,17.2046748 45.5551843,17.2046748 C47.9103965,17.2046748 49.4278349,16.0221323 50.1228997,15.3175512 L50.196821,15.2423546 L51.7676469,16.8008798 L51.6937257,16.8760763 C50.7563635,17.8268487 48.7142898,19.4224571 45.5695579,19.4224571 L45.5695579,19.4224571 Z" id="Fill-3" fill="#1F4F46"></path>
                    <path d="M67.4276522,10.6697881 C67.2654362,9.515058 66.769548,8.45612617 66.0210956,7.67737864 C65.1627881,6.78326111 64.0324094,6.3114802 62.7531616,6.3114802 C60.3445619,6.3114802 58.3825695,8.096625 57.9462289,10.668758 L67.4276522,10.6697881 Z M63.1094209,19.4224571 C62.8938173,19.4224571 62.674107,19.4142164 62.4543967,19.3997951 C58.5088516,19.1299117 55.6454309,15.9211835 55.6454309,11.7709536 C55.6454309,7.46621033 58.7675758,4.09472798 62.7531616,4.09472798 C64.6473929,4.09472798 66.3270473,4.80136925 67.6124552,6.13945528 C69.011825,7.59703168 69.7695175,9.66751122 69.6894362,11.8193678 L69.6493955,12.8865404 L57.9441756,12.8855103 C58.4082366,15.6677815 60.6063662,17.0511915 62.6053192,17.1881934 C62.7706153,17.1995243 62.936938,17.2057049 63.1001807,17.2057049 C65.4523129,17.2057049 66.9687246,16.0221323 67.6637894,15.3175512 L67.7377106,15.2423546 L69.3085366,16.8008798 L69.2346153,16.8760763 C68.2972532,17.8268487 66.2551795,19.4224571 63.1094209,19.4224571 L63.1094209,19.4224571 Z" id="Fill-5" fill="#1F4F46"></path>
                    <g id="Group-9" transform="translate(73.309825, 0.000000)">
                        <mask id="mask-2" fill="white">
                            <use xlink:href="#path-1"></use>
                        </mask>
                        <g id="Clip-8"></g>
                        <path d="M6.90897053,19.4377024 C3.97368206,19.4377024 2.22010643,17.7432055 2.22010643,14.9053094 L2.22010643,6.79747634 L0.109244905,6.79747634 L0.109244905,4.47565501 L2.22010643,4.47565501 L2.22010643,0.156490477 L4.53425131,0.156490477 L4.53425131,4.47565501 L9.06295277,4.47565501 L9.06295277,6.79747634 L4.535278,6.79747634 L4.535278,14.6014331 C4.535278,15.8200287 4.89359058,16.6111373 5.6009756,16.9520969 C5.96852833,17.1282422 6.42950928,17.2178599 6.97262491,17.2178599 C7.69643687,17.2178599 8.43667576,17.057166 8.93051058,16.9222243 L9.06295277,16.8861712 L9.06295277,19.0802614 L8.98903155,19.1039535 C8.30628694,19.3223324 7.58658172,19.4377024 6.90897053,19.4377024" id="Fill-7" fill="#1F4F46" mask="url(#mask-2)"></path>
                    </g>
                </g>
                <polygon id="Fill-11" fill="#1F4F46" points="28.4944746 19.1561062 24.8589879 8.37519132 21.2245278 19.1561062 18.8919026 19.1561062 13.9781948 4.63081663 16.3559941 4.63081663 20.1187896 15.7186981 23.7891835 4.63081663 25.9287922 4.63081663 29.6002128 15.7186981 33.3630083 4.63081663 35.7397809 4.63081663 30.8270997 19.1561062"></polygon>
                <g id="Group-22" stroke-width="1" transform="translate(85.837672, 4.040884)" fill="#1F4F46">
                    <path d="M42.7026038,6.75717994 C42.5403878,5.60244981 42.0444996,4.54351799 41.2960473,3.76477046 C40.4377398,2.87065293 39.3073611,2.39887202 38.0281133,2.39887202 C35.6195135,2.39887202 33.6575211,4.18401681 33.2211806,6.75614985 L42.7026038,6.75717994 Z M38.3843725,15.5098489 C38.168769,15.5098489 37.9490587,15.5016082 37.7293484,15.487187 C33.7838032,15.2173036 30.9203826,12.0085753 30.9203826,7.85834543 C30.9203826,3.55360215 34.0425275,0.182119792 38.0281133,0.182119792 C39.9223446,0.182119792 41.6030257,0.888761068 42.8874069,2.2268471 C44.2867767,3.68442349 45.0444692,5.75490303 44.9643879,7.90675963 L44.9243472,8.97393217 L33.2191272,8.97290208 C33.6831882,11.7551733 35.8813179,13.1385833 37.8802709,13.2755852 C38.0455669,13.2869162 38.2118897,13.2930967 38.3741057,13.2930967 C40.7262379,13.2930967 42.2436763,12.1095241 42.9387411,11.404943 L43.0126623,11.3297464 L44.5834882,12.8882716 L44.509567,12.9634681 C43.5722049,13.9142406 41.5301311,15.5098489 38.3843725,15.5098489 L38.3843725,15.5098489 Z" id="Fill-12"></path>
                    <path d="M60.2430828,6.75717994 C60.0808668,5.60244981 59.5849786,4.54351799 58.8365263,3.76477046 C57.9782188,2.87065293 56.8478401,2.39887202 55.569619,2.39887202 C53.1599925,2.39887202 51.1980001,4.18401681 50.7616596,6.75614985 L60.2430828,6.75717994 Z M55.9248515,15.5098489 C55.7102747,15.5098489 55.4895377,15.5016082 55.2698274,15.487187 C51.3253089,15.2173036 48.4608616,12.0085753 48.4608616,7.85834543 C48.4608616,3.55360215 51.5830065,0.182119792 55.569619,0.182119792 C57.4628236,0.182119792 59.1435047,0.888761068 60.4278859,2.2268471 C61.8272557,3.68442349 62.5849482,5.75490303 62.5048669,7.90675963 L62.4648262,8.97393217 L50.7596062,8.97290208 C51.2236672,11.7551733 53.4217969,13.1385833 55.4207499,13.2755852 C55.5870726,13.2869162 55.7554487,13.2930967 55.9186914,13.2930967 C58.2677436,13.2930967 59.7841553,12.1095241 60.4792201,11.404943 L60.5531413,11.3297464 L62.1239672,12.8893017 L62.050046,12.9634681 C61.1126839,13.9142406 59.0695835,15.5098489 55.9248515,15.5098489 L55.9248515,15.5098489 Z" id="Fill-14"></path>
                    <path d="M20.6251073,15.1152217 L20.6251073,0.590962245 L22.8345304,0.590962245 L22.8345304,3.84913477 C23.978256,1.63650291 26.080904,0.280905358 28.4196893,0.280905358 C28.5059307,0.280905358 28.5931988,0.282965537 28.6804669,0.286055805 L28.7821086,0.291206252 L28.7821086,2.79123304 L28.5100375,2.79123304 C24.7842026,2.79123304 22.8345304,6.49337407 22.8345304,10.1501912 L22.8345304,15.1152217 L20.6251073,15.1152217 Z" id="Fill-16"></path>
                    <path d="M77.4644686,15.1152217 L77.4644686,6.62110514 C77.4644686,3.98304639 76.0291649,2.40700972 73.6246718,2.40700972 C70.8598128,2.40700972 69.1483312,5.07494107 69.1483312,7.54715544 L69.1483312,15.1152217 L66.8146794,15.1152217 L66.8146794,0.589932155 L69.1483312,0.589932155 L69.1483312,2.80256402 C70.2735765,1.15854146 72.0117519,0.258243393 74.081546,0.258243393 C77.5558434,0.258243393 79.8001738,2.54916205 79.8001738,6.09369941 L79.8001738,15.1152217 L77.4644686,15.1152217 Z" id="Fill-18"></path>
                    <path d="M16.4149857,2.08799106 L14.6737303,0.360531263 C13.8390365,0.940471552 13.2086528,1.75733239 12.8267265,2.76269957 C12.3729323,2.26619651 10.3021114,0.18232581 7.02904406,0.18232581 C3.20875431,0.18232581 0.10200967,3.39929477 0.10200967,7.23122705 C0.10200967,11.0631593 3.12867299,14.1802096 7.16867304,14.1802096 C10.7261318,14.1802096 12.5064012,11.9480061 12.5064012,11.9480061 L12.5064012,12.1735956 C12.5064012,13.8104076 12.0731407,15.0866882 11.2189399,15.9674146 C10.2980047,16.9140667 9.09473151,17.3549449 7.43355741,17.3549449 C4.49518889,17.3549449 2.92846968,15.9643243 2.49315582,15.7026816 L1.21082798,17.5084282 C1.59891439,17.7185664 3.66870857,19.5716971 7.43355741,19.5716971 C9.69739479,19.5716971 11.4530238,18.8990488 12.8010594,17.5146088 C14.0536134,16.2239068 14.7147977,14.3769567 14.7147977,12.1735956 L14.7497049,5.72832673 C14.7497049,4.02661916 15.3462081,2.76785001 16.4149857,2.08799106 M7.47770481,12.0479247 C4.72927275,12.0479247 2.49212914,9.88267697 2.49212914,7.22195625 C2.49212914,4.56020543 4.72927275,2.39495768 7.47770481,2.39495768 C10.2271635,2.39495768 12.4632805,4.56020543 12.4632805,7.22195625 C12.4632805,9.88267697 10.2271635,12.0479247 7.47770481,12.0479247" id="Fill-20"></path>
                </g>
            </g>
        </g>
    </g>
</svg>