<svg xmlns="http://www.w3.org/2000/svg" fill='#fff' viewBox="0 0 173.45 207.06" aria-hidden="true"><defs></defs><g id="Layer_2" data-name="Layer 2"><path class="cls-1" d="M65 43.14a4.31 4.31 0 1 0-4.34-4.31A4.32 4.32 0 0 0 65 43.14zm43.36 0a4.31 4.31 0 1 0-4.34-4.31 4.32 4.32 0 0 0 4.39 4.31zm8.93-24.49l11.37-11.26a4.28 4.28 0 0 0 0-6.08 4.33 4.33 0 0 0-6.11 0L109.71 14a51.77 51.77 0 0 0-46.1 0L50.74 1.26a4.33 4.33 0 0 0-6.11 0 4.28 4.28 0 0 0 0 6.08L56 18.65A51.74 51.74 0 0 0 34.69 60.4h104.07a51.5 51.5 0 0 0-21.42-41.75zM160.44 69a13 13 0 0 0-13 12.94v60.39a13 13 0 0 0 26 0V82a13 13 0 0 0-13-13zM13 69A13 13 0 0 0 0 82v60.39a13 13 0 0 0 26 0V82a13 13 0 0 0-13-13zm21.69 86.3a8.68 8.68 0 0 0 8.67 8.63H52v30.19a13 13 0 0 0 26 0v-30.2h17.4v30.19a13 13 0 0 0 26 0v-30.19h8.67a8.68 8.68 0 0 0 8.67-8.63V69H34.69z" id="Layer_1-2" data-name="Layer 1"></path></g></svg>
