<svg xmlns="http://www.w3.org/2000/svg" fill='#fff' viewBox="0 0 177.62 207.06" aria-hidden="true"><defs></defs><g id="Layer_2" data-name="Layer 2"><path className="cls-1" d="M147.95 52.14C162.36 57.78 171 70 171 70s-24 11.69-23.05 40.72 29.68 41.4 29.68 41.4-11 23.57-21.93 37.31c-5.94 7.47-18.64 17.63-27.85 17.63-6 0-11.56-3.31-17.87-5.69-5.63-2.12-7.32-3.53-15.31-3.94-6.43-.33-15.28 2.18-20 4.66-5.11 2.66-15.29 7.26-25.37 3.39-11.47-4.39-21.78-16.21-30.18-30.42C3.29 148.37.33 126.29 0 112.85a69.4 69.4 0 0 1 10.39-39C21.3 56.42 36.74 52.14 36.74 52.14s14.31-6.1 33.19 0c10.84 3.51 16.38 7.05 23.43 6.42s10.5-3.54 20.23-6.42c9.49-2.81 24.15-3.99 34.36 0zm-27.84-18c-11.56 18.19-34.83 17.63-34.83 17.63A43.15 43.15 0 0 1 96.2 16.56C111 0 129 0 129 0s2.66 16-8.89 34.17z" id="Layer_1-2" data-name="Layer 1"></path></g></svg>
