<?xml version="1.0" encoding="UTF-8"?>
<svg width="48px" height="48px" viewBox="0 0 48 48" version="1.1" xmlns="http://www.w3.org/2000/svg" xmlns:xlink="http://www.w3.org/1999/xlink">
    <!-- Generator: Sketch 51.1 (57501) - http://www.bohemiancoding.com/sketch -->
    <title>Youtube_Color</title>
    <desc>Created with Sketch.</desc>
    <defs></defs>
    <g id="Symbols" stroke="none" stroke-width="1" fill="none" fill-rule="evenodd">
        <g id="Module/D-Footer" transform="translate(-806.000000, -195.000000)">
            <g id="Group-4" transform="translate(587.000000, 195.000000)">
                <g id="Youtube" transform="translate(219.000000, 0.000000)">
                    <path d="M0.5,24 C0.5,36.9786923 11.0213077,47.5 24,47.5 C36.9786923,47.5 47.5,36.9786923 47.5,24 C47.5,11.0213077 36.9786923,0.5 24,0.5 C11.0213077,0.5 0.5,11.0213077 0.5,24 Z" id="back" stroke="#FFFFFF" opacity="0.159999996"></path>
                    <g id="Group-2" opacity="0.959999979" transform="translate(15.000000, 17.000000)">
                        <path d="M17.2695586,3.36103556 C17.2695586,3.36103556 17.0990467,2.13351329 16.5766154,1.59295813 C15.9136343,0.883166347 15.1705725,0.87982615 14.8300933,0.838630392 C12.390628,0.658259773 8.73143001,0.658259773 8.73143001,0.658259773 L8.72380328,0.658259773 C8.72380328,0.658259773 5.0646053,0.658259773 2.62513997,0.838630392 C2.28411602,0.87982615 1.54159899,0.883166347 0.87807314,1.59295813 C0.355641866,2.13351329 0.185674653,3.36103556 0.185674653,3.36103556 C0.185674653,3.36103556 0.0113493064,4.80288711 0.0113493064,6.24418196 L0.0113493064,7.5958482 C0.0113493064,9.03769975 0.185674653,10.4789946 0.185674653,10.4789946 C0.185674653,10.4789946 0.355641866,11.7065169 0.87807314,12.247072 C1.54159899,12.9568638 2.41268096,12.9345958 2.80055485,13.0086369 C4.19515763,13.1455849 8.72761665,13.1878941 8.72761665,13.1878941 C8.72761665,13.1878941 12.390628,13.1823271 14.8300933,13.0019565 C15.1705725,12.960204 15.9136343,12.9568638 16.5766154,12.247072 C17.0990467,11.7065169 17.2695586,10.4789946 17.2695586,10.4789946 C17.2695586,10.4789946 17.443884,9.03769975 17.443884,7.5958482 L17.443884,6.24418196 C17.443884,4.80288711 17.2695586,3.36103556 17.2695586,3.36103556 L17.2695586,3.36103556 Z" id="Youtube" fill="#FFFFFF"></path>
                        <polygon id="Path" fill="#1F4F46" points="6.92770744 9.23365795 6.92716267 4.22837328 11.6372156 6.73964446"></polygon>
                    </g>
                </g>
            </g>
        </g>
    </g>
</svg>