<?xml version="1.0" encoding="UTF-8"?>
<svg width="48px" height="48px" viewBox="0 0 48 48" version="1.1" xmlns="http://www.w3.org/2000/svg" xmlns:xlink="http://www.w3.org/1999/xlink">
    <!-- Generator: Sketch 51.1 (57501) - http://www.bohemiancoding.com/sketch -->
    <title>Group 3 Copy 2</title>
    <desc>Created with Sketch.</desc>
    <defs></defs>
    <g id="Symbols" stroke="none" stroke-width="1" fill="none" fill-rule="evenodd">
        <g id="Module/D-Footer" transform="translate(-733.000000, -195.000000)">
            <g id="Group-4" transform="translate(587.000000, 195.000000)">
                <g id="Group-3-Copy-2" transform="translate(146.000000, 0.000000)">
                    <path d="M0.5,24 C0.5,36.9786923 11.0213077,47.5 24,47.5 C36.9786923,47.5 47.5,36.9786923 47.5,24 C47.5,11.0213077 36.9786923,0.5 24,0.5 C11.0213077,0.5 0.5,11.0213077 0.5,24 Z" id="back" stroke="#FFFFFF" opacity="0.159999996"></path>
                    <path d="M33,18.732 C32.3375,19.0255 31.6255,19.224 30.879,19.313 C31.6425,18.856 32.228,18.133 32.5025,17.271 C31.7885,17.694 30.9995,18.001 30.1565,18.1655 C29.485,17.448 28.524,17 27.4615,17 C25.423,17 23.7695,18.6535 23.7695,20.6925 C23.7695,20.9825 23.801,21.2635 23.865,21.5335 C20.7965,21.379 18.0755,19.9105 16.2525,17.675 C15.9345,18.222 15.7535,18.856 15.7535,19.533 C15.7535,20.813 16.4055,21.9435 17.3955,22.6065 C16.7915,22.588 16.221,22.4205 15.722,22.1455 L15.722,22.1905 C15.722,23.981 16.9955,25.4735 18.6855,25.8115 C18.376,25.898 18.0505,25.9415 17.7125,25.9415 C17.4745,25.9415 17.243,25.9195 17.018,25.876 C17.488,27.343 18.8505,28.411 20.4675,28.4395 C19.203,29.4305 17.61,30.0205 15.881,30.0205 C15.583,30.0205 15.2885,30.004 15,29.9695 C16.6345,31.0165 18.5755,31.628 20.66,31.628 C27.4545,31.628 31.1675,26.002 31.1675,21.1215 C31.1675,20.961 31.1645,20.801 31.1575,20.6435 C31.8795,20.1225 32.507,19.472 33,18.732" id="Fill-5" fill="#FFFFFF" opacity="0.959999979"></path>
                </g>
            </g>
        </g>
    </g>
</svg>