<?xml version="1.0" encoding="UTF-8"?>
<svg width="48px" height="48px" viewBox="0 0 48 48" version="1.1" xmlns="http://www.w3.org/2000/svg" xmlns:xlink="http://www.w3.org/1999/xlink">
    <!-- Generator: Sketch 51.1 (57501) - http://www.bohemiancoding.com/sketch -->
    <title>Group 3 Copy</title>
    <desc>Created with Sketch.</desc>
    <defs></defs>
    <g id="Symbols" stroke="none" stroke-width="1" fill="none" fill-rule="evenodd">
        <g id="Module/D-Footer" transform="translate(-587.000000, -195.000000)">
            <g id="Group-4" transform="translate(587.000000, 195.000000)">
                <g id="Group-3-Copy">
                    <path d="M0.5,24 C0.5,36.9786923 11.0213077,47.5 24,47.5 C36.9786923,47.5 47.5,36.9786923 47.5,24 C47.5,11.0213077 36.9786923,0.5 24,0.5 C11.0213077,0.5 0.5,11.0213077 0.5,24 Z" id="back" stroke="#FFFFFF" opacity="0.159999996"></path>
                    <g id="Group-5" opacity="0.96" transform="translate(15.000000, 15.000000)" fill="#FFFFFF">
                        <path d="M1.69496021,5.2044228 L1.69496021,12.7955772 C1.69496021,14.7335673 3.2663287,16.3050398 5.20439374,16.3050398 L12.891097,16.3050398 C14.829528,16.3050398 16.4005305,14.7339366 16.4005305,12.7955772 L16.4005305,5.2044228 C16.4005305,3.26643267 14.829162,1.69496021 12.891097,1.69496021 L5.20439374,1.69496021 C3.26596272,1.69496021 1.69496021,3.26606342 1.69496021,5.2044228 Z M0.023872679,5.2044228 C0.023872679,2.34317124 2.34302259,0.023872679 5.20439374,0.023872679 L12.891097,0.023872679 C15.7521029,0.023872679 18.071618,2.34354126 18.071618,5.2044228 L18.071618,12.7955772 C18.071618,15.6568288 15.7524681,17.9761273 12.891097,17.9761273 L5.20439374,17.9761273 C2.34338779,17.9761273 0.023872679,15.6564587 0.023872679,12.7955772 L0.023872679,5.2044228 Z" id="Camera-Frame" fill-rule="nonzero"></path>
                        <path d="M9.07161804,13.8222812 C6.44789924,13.8222812 4.32095491,11.6953368 4.32095491,9.07161804 C4.32095491,6.44789924 6.44789924,4.32095491 9.07161804,4.32095491 C11.6953368,4.32095491 13.8222812,6.44789924 13.8222812,9.07161804 C13.8222812,11.6953368 11.6953368,13.8222812 9.07161804,13.8222812 Z M9.07161804,12.1511936 C10.7724207,12.1511936 12.1511936,10.7724207 12.1511936,9.07161804 C12.1511936,7.3708154 10.7724207,5.99204244 9.07161804,5.99204244 C7.3708154,5.99204244 5.99204244,7.3708154 5.99204244,9.07161804 C5.99204244,10.7724207 7.3708154,12.1511936 9.07161804,12.1511936 Z" id="Oval-1" fill-rule="nonzero"></path>
                        <circle id="Oval-2" cx="13.8700265" cy="4.20159151" r="1.14588859"></circle>
                    </g>
                </g>
            </g>
        </g>
    </g>
</svg>