<?xml version="1.0" encoding="UTF-8"?>
<svg width="164px" height="31px" viewBox="0 0 164 31" version="1.1" xmlns="http://www.w3.org/2000/svg" xmlns:xlink="http://www.w3.org/1999/xlink">
    <!-- Generator: Sketch 52.2 (67145) - http://www.bohemiancoding.com/sketch -->
    <title>Group</title>
    <desc>Created with Sketch.</desc>
    <g id="Page-1" stroke="none" stroke-width="1" fill="none" fill-rule="evenodd">
        <g id="1.0_LP_Desktop_DanBarber" transform="translate(-407.000000, -10720.000000)" fill="#010202">
            <g id="module_community" transform="translate(0.000000, 10604.000000)">
                <g id="Group" transform="translate(407.000000, 116.000000)">
                    <path d="M12.2001305,13.3152254 L4.1998558,13.3152254 L4.1998558,4.97283816 L12.2001305,4.97283816 C14.5996361,4.97283816 16.7994232,6.36347474 16.7994232,9.1440318 C16.7994232,11.9245889 14.5996361,13.3152254 12.2001305,13.3152254 M21,9.1440318 C21,3.97891254 16.7994232,1 12.000412,1 L0,1 L0,30 L4.1998558,30 L4.1998558,17.2880636 L7.7998352,17.2880636 L16.1995468,30 L20.7995605,30 L20.7995605,29.205862 L12.6002884,17.2880636 C16.7994232,17.0897081 21,14.1093634 21,9.1440318" id="Fill-13"></path>
                    <path d="M40.5,26.9738752 C33.8570392,26.9738752 29.2271408,22.1422351 29.2271408,15.5406386 C29.2271408,8.85703919 33.8570392,4.02612482 40.5,4.02612482 C47.1422351,4.02612482 51.7322206,8.85703919 51.7322206,15.5406386 C51.7322206,22.1422351 47.1422351,26.9738752 40.5,26.9738752 M40.5,0 C31.9245283,0 25,6.9245283 25,15.4992743 C25,24.0754717 31.9245283,31 40.5,31 C49.074746,31 56,24.0754717 56,15.4992743 C56,6.9245283 49.074746,0 40.5,0" id="Fill-14"></path>
                    <polygon id="Fill-15" points="85.4460322 30 92 1 87.6582548 1 82.9879251 21.8559682 77.2941841 1 72.7471659 1 66.9714633 21.8559682 62.3424836 1 58 1 64.5547062 30 68.8558398 30 75.0007384 8.54753321 81.1448986 30"></polygon>
                    <path d="M145,1 L145,8.94496024 L148.719261,8.94496024 L148.719261,4.89335276 L159.714543,4.89335276 C158.05749,8.42866314 153.530107,18.1215863 149.648347,29.205862 L149.648347,30 L153.691148,30 C158.542073,15.3016445 164,4.93273742 164,4.93273742 L164,1 L145,1 Z" id="Fill-16"></path>
                    <polygon id="Fill-17" points="98 15.2771163 139 15.2771163 139 15 98 15"></polygon>
                </g>
            </g>
        </g>
    </g>
</svg>