<?xml version="1.0" encoding="UTF-8"?>
<svg width="497px" height="142px" viewBox="0 0 497 142" version="1.1" xmlns="http://www.w3.org/2000/svg" xmlns:xlink="http://www.w3.org/1999/xlink">
    <!-- Generator: Sketch 52.2 (67145) - http://www.bohemiancoding.com/sketch -->
    <title>100,000 seeds. 6 far</title>
    <desc>Created with Sketch.</desc>
    <g id="Page-1" stroke="none" stroke-width="1" fill="none" fill-rule="evenodd">
        <g id="1.0_LP_Desktop_DanBarber" transform="translate(-143.000000, -305.000000)" fill="#FFFFFF">
            <path d="M151.453125,334 L151.453125,309.546875 L151.375,309.546875 L150.251953,310.328125 C149.503251,310.848961 148.63412,311.454424 147.644531,312.144531 C146.654943,312.834639 145.785811,313.440102 145.037109,313.960938 L143.914062,314.742188 L143.914062,311.207031 L145.046875,310.396484 C145.802087,309.856117 146.674474,309.227868 147.664062,308.511719 C148.653651,307.795569 149.526038,307.16732 150.28125,306.626953 L151.414062,305.816406 L154.851562,305.816406 L154.851562,334 L151.453125,334 Z M178.234375,334.46875 C174.940088,334.46875 172.384775,333.153659 170.568359,330.523438 C168.751944,327.893216 167.84375,324.351585 167.84375,319.898438 C167.84375,315.484353 168.758454,311.955742 170.587891,309.3125 C172.417327,306.669258 174.966129,305.347656 178.234375,305.347656 C181.502621,305.347656 184.044913,306.662747 185.861328,309.292969 C187.677743,311.92319 188.585938,315.451801 188.585938,319.878906 C188.585938,324.332054 187.680999,327.87694 185.871094,330.513672 C184.061189,333.150404 181.515641,334.46875 178.234375,334.46875 Z M178.234375,331.402344 C180.434907,331.402344 182.121088,330.363943 183.292969,328.287109 C184.46485,326.210276 185.050781,323.41408 185.050781,319.898438 C185.050781,316.434879 184.458339,313.658214 183.273438,311.568359 C182.088536,309.478505 180.408865,308.433594 178.234375,308.433594 C176.059885,308.433594 174.373704,309.48176 173.175781,311.578125 C171.977859,313.67449 171.378906,316.441389 171.378906,319.878906 C171.378906,323.394549 171.971348,326.194 173.15625,328.277344 C174.341152,330.360687 176.033843,331.402344 178.234375,331.402344 Z M208.863281,334.46875 C205.568994,334.46875 203.013681,333.153659 201.197266,330.523438 C199.38085,327.893216 198.472656,324.351585 198.472656,319.898438 C198.472656,315.484353 199.387361,311.955742 201.216797,309.3125 C203.046233,306.669258 205.595036,305.347656 208.863281,305.347656 C212.131527,305.347656 214.673819,306.662747 216.490234,309.292969 C218.30665,311.92319 219.214844,315.451801 219.214844,319.878906 C219.214844,324.332054 218.309905,327.87694 216.5,330.513672 C214.690095,333.150404 212.144548,334.46875 208.863281,334.46875 Z M208.863281,331.402344 C211.063813,331.402344 212.749994,330.363943 213.921875,328.287109 C215.093756,326.210276 215.679688,323.41408 215.679688,319.898438 C215.679688,316.434879 215.087246,313.658214 213.902344,311.568359 C212.717442,309.478505 211.037771,308.433594 208.863281,308.433594 C206.688791,308.433594 205.00261,309.48176 203.804688,311.578125 C202.606765,313.67449 202.007812,316.441389 202.007812,319.878906 C202.007812,323.394549 202.600254,326.194 203.785156,328.277344 C204.970058,330.360687 206.662749,331.402344 208.863281,331.402344 Z M231.09375,339.605469 L228.261719,339.605469 L230.15625,329.664062 L233.769531,329.664062 L231.09375,339.605469 Z M255.238281,334.46875 C251.943994,334.46875 249.388681,333.153659 247.572266,330.523438 C245.75585,327.893216 244.847656,324.351585 244.847656,319.898438 C244.847656,315.484353 245.762361,311.955742 247.591797,309.3125 C249.421233,306.669258 251.970036,305.347656 255.238281,305.347656 C258.506527,305.347656 261.048819,306.662747 262.865234,309.292969 C264.68165,311.92319 265.589844,315.451801 265.589844,319.878906 C265.589844,324.332054 264.684905,327.87694 262.875,330.513672 C261.065095,333.150404 258.519548,334.46875 255.238281,334.46875 Z M255.238281,331.402344 C257.438813,331.402344 259.124994,330.363943 260.296875,328.287109 C261.468756,326.210276 262.054688,323.41408 262.054688,319.898438 C262.054688,316.434879 261.462246,313.658214 260.277344,311.568359 C259.092442,309.478505 257.412771,308.433594 255.238281,308.433594 C253.063791,308.433594 251.37761,309.48176 250.179688,311.578125 C248.981765,313.67449 248.382812,316.441389 248.382812,319.878906 C248.382812,323.394549 248.975254,326.194 250.160156,328.277344 C251.345058,330.360687 253.037749,331.402344 255.238281,331.402344 Z M285.867188,334.46875 C282.5729,334.46875 280.017587,333.153659 278.201172,330.523438 C276.384757,327.893216 275.476562,324.351585 275.476562,319.898438 C275.476562,315.484353 276.391267,311.955742 278.220703,309.3125 C280.050139,306.669258 282.598942,305.347656 285.867188,305.347656 C289.135433,305.347656 291.677725,306.662747 293.494141,309.292969 C295.310556,311.92319 296.21875,315.451801 296.21875,319.878906 C296.21875,324.332054 295.313811,327.87694 293.503906,330.513672 C291.694001,333.150404 289.148454,334.46875 285.867188,334.46875 Z M285.867188,331.402344 C288.067719,331.402344 289.7539,330.363943 290.925781,328.287109 C292.097662,326.210276 292.683594,323.41408 292.683594,319.898438 C292.683594,316.434879 292.091152,313.658214 290.90625,311.568359 C289.721348,309.478505 288.041678,308.433594 285.867188,308.433594 C283.692697,308.433594 282.006516,309.48176 280.808594,311.578125 C279.610671,313.67449 279.011719,316.441389 279.011719,319.878906 C279.011719,323.394549 279.604161,326.194 280.789062,328.277344 C281.973964,330.360687 283.666656,331.402344 285.867188,331.402344 Z M316.496094,334.46875 C313.201806,334.46875 310.646493,333.153659 308.830078,330.523438 C307.013663,327.893216 306.105469,324.351585 306.105469,319.898438 C306.105469,315.484353 307.020173,311.955742 308.849609,309.3125 C310.679046,306.669258 313.227848,305.347656 316.496094,305.347656 C319.764339,305.347656 322.306632,306.662747 324.123047,309.292969 C325.939462,311.92319 326.847656,315.451801 326.847656,319.878906 C326.847656,324.332054 325.942717,327.87694 324.132812,330.513672 C322.322908,333.150404 319.77736,334.46875 316.496094,334.46875 Z M316.496094,331.402344 C318.696626,331.402344 320.382807,330.363943 321.554688,328.287109 C322.726568,326.210276 323.3125,323.41408 323.3125,319.898438 C323.3125,316.434879 322.720058,313.658214 321.535156,311.568359 C320.350254,309.478505 318.670584,308.433594 316.496094,308.433594 C314.321604,308.433594 312.635423,309.48176 311.4375,311.578125 C310.239577,313.67449 309.640625,316.441389 309.640625,319.878906 C309.640625,323.394549 310.233067,326.194 311.417969,328.277344 C312.602871,330.360687 314.295562,331.402344 316.496094,331.402344 Z M350.9375,326.441406 L354.453125,326.441406 C354.661459,327.95183 355.419915,329.13997 356.728516,330.005859 C358.037116,330.871749 359.700511,331.304688 361.71875,331.304688 C363.632822,331.304688 365.211582,330.852218 366.455078,329.947266 C367.698574,329.042313 368.320312,327.899746 368.320312,326.519531 C368.320312,325.334629 367.89714,324.348311 367.050781,323.560547 C366.204423,322.772783 364.804697,322.164065 362.851562,321.734375 L359.726562,321.050781 C356.901028,320.438799 354.847012,319.488288 353.564453,318.199219 C352.281895,316.91015 351.640625,315.263031 351.640625,313.257812 C351.640625,310.927072 352.56835,309.026049 354.423828,307.554688 C356.279306,306.083326 358.66535,305.347656 361.582031,305.347656 C364.394545,305.347656 366.718741,306.106112 368.554688,307.623047 C370.390634,309.139982 371.347656,311.096342 371.425781,313.492188 L367.910156,313.492188 C367.753905,311.942701 367.10287,310.725265 365.957031,309.839844 C364.811192,308.954423 363.320322,308.511719 361.484375,308.511719 C359.726554,308.511719 358.248704,308.918616 357.050781,309.732422 C355.852859,310.546228 355.253906,311.669264 355.253906,313.101562 C355.253906,314.208339 355.664058,315.145829 356.484375,315.914062 C357.304692,316.682296 358.678376,317.274738 360.605469,317.691406 L363.730469,318.375 C366.673192,319.013024 368.776035,319.944004 370.039062,321.167969 C371.30209,322.391933 371.933594,323.99999 371.933594,325.992188 C371.933594,328.596367 370.986338,330.660149 369.091797,332.183594 C367.197256,333.707039 364.674495,334.46875 361.523438,334.46875 C358.450505,334.46875 355.960296,333.739591 354.052734,332.28125 C352.145173,330.822909 351.106772,328.876314 350.9375,326.441406 Z M399.867188,330.835938 L399.867188,334 L382.40625,334 L382.40625,305.816406 L399.867188,305.816406 L399.867188,308.980469 L385.921875,308.980469 L385.921875,318.023438 L399.144531,318.023438 L399.144531,321.148438 L385.921875,321.148438 L385.921875,330.835938 L399.867188,330.835938 Z M428.328125,330.835938 L428.328125,334 L410.867188,334 L410.867188,305.816406 L428.328125,305.816406 L428.328125,308.980469 L414.382812,308.980469 L414.382812,318.023438 L427.605469,318.023438 L427.605469,321.148438 L414.382812,321.148438 L414.382812,330.835938 L428.328125,330.835938 Z M439.328125,305.816406 L448.800781,305.816406 C452.98049,305.816406 456.242176,307.053373 458.585938,309.527344 C460.929699,312.001314 462.101562,315.458311 462.101562,319.898438 C462.101562,324.338564 460.932954,327.798816 458.595703,330.279297 C456.258452,332.759778 452.993511,334 448.800781,334 L439.328125,334 L439.328125,305.816406 Z M442.84375,308.980469 L442.84375,330.835938 L448.566406,330.835938 C451.756526,330.835938 454.210929,329.891937 455.929688,328.003906 C457.648446,326.115876 458.507812,323.427101 458.507812,319.9375 C458.507812,316.408837 457.651701,313.70053 455.939453,311.8125 C454.227205,309.92447 451.769547,308.980469 448.566406,308.980469 L442.84375,308.980469 Z M471.480469,326.441406 L474.996094,326.441406 C475.204428,327.95183 475.962884,329.13997 477.271484,330.005859 C478.580085,330.871749 480.243479,331.304688 482.261719,331.304688 C484.175791,331.304688 485.754551,330.852218 486.998047,329.947266 C488.241543,329.042313 488.863281,327.899746 488.863281,326.519531 C488.863281,325.334629 488.440108,324.348311 487.59375,323.560547 C486.747392,322.772783 485.347666,322.164065 483.394531,321.734375 L480.269531,321.050781 C477.443996,320.438799 475.38998,319.488288 474.107422,318.199219 C472.824863,316.91015 472.183594,315.263031 472.183594,313.257812 C472.183594,310.927072 473.111319,309.026049 474.966797,307.554688 C476.822275,306.083326 479.208319,305.347656 482.125,305.347656 C484.937514,305.347656 487.26171,306.106112 489.097656,307.623047 C490.933603,309.139982 491.890625,311.096342 491.96875,313.492188 L488.453125,313.492188 C488.296874,311.942701 487.645839,310.725265 486.5,309.839844 C485.354161,308.954423 483.86329,308.511719 482.027344,308.511719 C480.269522,308.511719 478.791673,308.918616 477.59375,309.732422 C476.395827,310.546228 475.796875,311.669264 475.796875,313.101562 C475.796875,314.208339 476.207027,315.145829 477.027344,315.914062 C477.84766,316.682296 479.221345,317.274738 481.148438,317.691406 L484.273438,318.375 C487.216161,319.013024 489.319004,319.944004 490.582031,321.167969 C491.845058,322.391933 492.476562,323.99999 492.476562,325.992188 C492.476562,328.596367 491.529306,330.660149 489.634766,332.183594 C487.740225,333.707039 485.217464,334.46875 482.066406,334.46875 C478.993474,334.46875 476.503265,333.739591 474.595703,332.28125 C472.688142,330.822909 471.64974,328.876314 471.480469,326.441406 Z M505.292969,334.195312 C504.667966,334.195312 504.140627,333.980471 503.710938,333.550781 C503.281248,333.121092 503.066406,332.593753 503.066406,331.96875 C503.066406,331.343747 503.281248,330.816408 503.710938,330.386719 C504.140627,329.957029 504.667966,329.742188 505.292969,329.742188 C505.917972,329.742188 506.44531,329.957029 506.875,330.386719 C507.30469,330.816408 507.519531,331.343747 507.519531,331.96875 C507.519531,332.593753 507.30469,333.121092 506.875,333.550781 C506.44531,333.980471 505.917972,334.195312 505.292969,334.195312 Z M154.460938,390.488281 C152.729158,390.488281 151.042977,390.042322 149.402344,389.150391 C147.761711,388.258459 146.410813,386.780609 145.349609,384.716797 C144.288406,382.652984 143.757812,379.87632 143.757812,376.386719 C143.757812,371.634091 144.718089,367.936211 146.638672,365.292969 C148.559254,362.649726 151.244774,361.328125 154.695312,361.328125 C157.091158,361.328125 159.138663,361.97265 160.837891,363.261719 C162.537118,364.550788 163.608071,366.276031 164.050781,368.4375 L160.476562,368.4375 C160.072915,367.161452 159.363286,366.175134 158.347656,365.478516 C157.332026,364.781898 156.10157,364.433594 154.65625,364.433594 C152.299467,364.433594 150.476569,365.442698 149.1875,367.460938 C147.898431,369.479177 147.221354,372.363263 147.15625,376.113281 L147.214844,376.113281 C147.787763,374.837233 148.764316,373.756515 150.144531,372.871094 C151.524746,371.985673 153.171865,371.542969 155.085938,371.542969 C157.768243,371.542969 159.998038,372.425121 161.775391,374.189453 C163.552743,375.953785 164.441406,378.17707 164.441406,380.859375 C164.441406,383.645847 163.50066,385.947257 161.619141,387.763672 C159.737621,389.580087 157.351577,390.488281 154.460938,390.488281 Z M154.421875,387.363281 C156.218759,387.363281 157.742181,386.741543 158.992188,385.498047 C160.242194,384.254551 160.867188,382.747405 160.867188,380.976562 C160.867188,379.127595 160.268235,377.607428 159.070312,376.416016 C157.87239,375.224603 156.342457,374.628906 154.480469,374.628906 C152.61848,374.628906 151.072272,375.221348 149.841797,376.40625 C148.611322,377.591152 147.996094,379.082022 147.996094,380.878906 C147.996094,382.688811 148.614577,384.221999 149.851562,385.478516 C151.088548,386.735032 152.61197,387.363281 154.421875,387.363281 Z M193.121094,390 L189.605469,390 L189.605469,361.816406 L206.714844,361.816406 L206.714844,364.980469 L193.121094,364.980469 L193.121094,374.667969 L205.601562,374.667969 L205.601562,377.792969 L193.121094,377.792969 L193.121094,390 Z M233.457031,390 L233.027344,388.779297 C232.740884,387.965491 232.412111,387.028 232.041016,385.966797 C231.66992,384.905594 231.341147,383.968103 231.054688,383.154297 L230.625,381.933594 L219.414062,381.933594 L216.582031,390 L212.890625,390 L223.28125,361.816406 L226.757812,361.816406 L237.148438,390 L233.457031,390 Z M224.960938,366.09375 L224.501953,367.392578 C224.195962,368.258468 223.821617,369.329421 223.378906,370.605469 C222.936196,371.881517 222.490237,373.157546 222.041016,374.433594 C221.591795,375.709642 221.214194,376.780595 220.908203,377.646484 L220.449219,378.945312 L229.589844,378.945312 L225.078125,366.09375 L224.960938,366.09375 Z M250.257812,364.941406 L250.257812,375.742188 L256.996094,375.742188 C258.805999,375.742188 260.202469,375.273442 261.185547,374.335938 C262.168625,373.398433 262.660156,372.063811 262.660156,370.332031 C262.660156,368.639314 262.145838,367.317713 261.117188,366.367188 C260.088537,365.416662 258.66277,364.941406 256.839844,364.941406 L250.257812,364.941406 Z M250.257812,378.847656 L250.257812,390 L246.742188,390 L246.742188,361.816406 L257.308594,361.816406 C260.029962,361.816406 262.207674,362.581373 263.841797,364.111328 C265.47592,365.641284 266.292969,367.675769 266.292969,370.214844 C266.292969,372.180999 265.791672,373.880201 264.789062,375.3125 C263.786453,376.744799 262.399748,377.740883 260.628906,378.300781 L267.152344,390 L263.03125,390 L256.996094,378.847656 L250.257812,378.847656 Z M304.851562,390 L301.570312,390 L301.570312,368.28125 L301.433594,368.28125 L292.449219,389.804688 L289.480469,389.804688 L280.496094,368.28125 L280.359375,368.28125 L280.359375,390 L277.078125,390 L277.078125,361.816406 L281.160156,361.816406 L290.886719,385.332031 L291.042969,385.332031 L300.769531,361.816406 L304.851562,361.816406 L304.851562,390 Z M315.34375,382.441406 L318.859375,382.441406 C319.067709,383.95183 319.826165,385.13997 321.134766,386.005859 C322.443366,386.871749 324.106761,387.304688 326.125,387.304688 C328.039072,387.304688 329.617832,386.852218 330.861328,385.947266 C332.104824,385.042313 332.726562,383.899746 332.726562,382.519531 C332.726562,381.334629 332.30339,380.348311 331.457031,379.560547 C330.610673,378.772783 329.210947,378.164065 327.257812,377.734375 L324.132812,377.050781 C321.307278,376.438799 319.253262,375.488288 317.970703,374.199219 C316.688145,372.91015 316.046875,371.263031 316.046875,369.257812 C316.046875,366.927072 316.9746,365.026049 318.830078,363.554688 C320.685556,362.083326 323.0716,361.347656 325.988281,361.347656 C328.800795,361.347656 331.124991,362.106112 332.960938,363.623047 C334.796884,365.139982 335.753906,367.096342 335.832031,369.492188 L332.316406,369.492188 C332.160155,367.942701 331.50912,366.725265 330.363281,365.839844 C329.217442,364.954423 327.726572,364.511719 325.890625,364.511719 C324.132804,364.511719 322.654954,364.918616 321.457031,365.732422 C320.259109,366.546228 319.660156,367.669264 319.660156,369.101562 C319.660156,370.208339 320.070308,371.145829 320.890625,371.914062 C321.710942,372.682296 323.084626,373.274738 325.011719,373.691406 L328.136719,374.375 C331.079442,375.013024 333.182285,375.944004 334.445312,377.167969 C335.70834,378.391933 336.339844,379.99999 336.339844,381.992188 C336.339844,384.596367 335.392588,386.660149 333.498047,388.183594 C331.603506,389.707039 329.080745,390.46875 325.929688,390.46875 C322.856755,390.46875 320.366546,389.739591 318.458984,388.28125 C316.551423,386.822909 315.513022,384.876314 315.34375,382.441406 Z M349.15625,390.195312 C348.531247,390.195312 348.003908,389.980471 347.574219,389.550781 C347.144529,389.121092 346.929688,388.593753 346.929688,387.96875 C346.929688,387.343747 347.144529,386.816408 347.574219,386.386719 C348.003908,385.957029 348.531247,385.742188 349.15625,385.742188 C349.781253,385.742188 350.308592,385.957029 350.738281,386.386719 C351.167971,386.816408 351.382812,387.343747 351.382812,387.96875 C351.382812,388.593753 351.167971,389.121092 350.738281,389.550781 C350.308592,389.980471 349.781253,390.195312 349.15625,390.195312 Z M382.699219,390 L382.699219,365.546875 L382.621094,365.546875 L381.498047,366.328125 C380.749345,366.848961 379.880213,367.454424 378.890625,368.144531 C377.901037,368.834639 377.031905,369.440102 376.283203,369.960938 L375.160156,370.742188 L375.160156,367.207031 L376.292969,366.396484 C377.048181,365.856117 377.920568,365.227868 378.910156,364.511719 C379.899745,363.795569 380.772132,363.16732 381.527344,362.626953 L382.660156,361.816406 L386.097656,361.816406 L386.097656,390 L382.699219,390 Z M426.535156,390.46875 C422.53774,390.46875 419.37371,389.160169 417.042969,386.542969 C414.712228,383.925768 413.546875,380.384137 413.546875,375.917969 C413.546875,371.43878 414.712228,367.890638 417.042969,365.273438 C419.37371,362.656237 422.53774,361.347656 426.535156,361.347656 C430.532572,361.347656 433.696603,362.656237 436.027344,365.273438 C438.358085,367.890638 439.523438,371.43878 439.523438,375.917969 C439.523438,381.425809 437.817725,385.468737 434.40625,388.046875 L438.136719,393.183594 L434.191406,393.183594 L431.574219,389.589844 C430.076815,390.175784 428.397145,390.46875 426.535156,390.46875 Z M426.535156,387.226562 C427.589849,387.226562 428.585933,387.076824 429.523438,386.777344 L426.007812,381.933594 L429.953125,381.933594 L432.355469,385.214844 C434.725272,383.209625 435.910156,380.110698 435.910156,375.917969 C435.910156,372.441389 435.067066,369.684255 433.380859,367.646484 C431.694653,365.608714 429.412775,364.589844 426.535156,364.589844 C423.657538,364.589844 421.375659,365.608714 419.689453,367.646484 C418.003247,369.684255 417.160156,372.441389 417.160156,375.917969 C417.160156,379.381528 418.003247,382.132151 419.689453,384.169922 C421.375659,386.207692 423.657538,387.226562 426.535156,387.226562 Z M453.785156,361.816406 L453.785156,379.882812 C453.785156,382.005219 454.455722,383.759759 455.796875,385.146484 C457.138028,386.53321 459.026029,387.226562 461.460938,387.226562 C463.908866,387.226562 465.800124,386.53321 467.134766,385.146484 C468.469408,383.759759 469.136719,382.005219 469.136719,379.882812 L469.136719,361.816406 L472.652344,361.816406 L472.652344,380.117188 C472.652344,383.125015 471.66277,385.602204 469.683594,387.548828 C467.704417,389.495452 464.963559,390.46875 461.460938,390.46875 C457.971337,390.46875 455.233734,389.495452 453.248047,387.548828 C451.26236,385.602204 450.269531,383.125015 450.269531,380.117188 L450.269531,361.816406 L453.785156,361.816406 Z M501.953125,386.835938 L501.953125,390 L484.492188,390 L484.492188,361.816406 L501.953125,361.816406 L501.953125,364.980469 L488.007812,364.980469 L488.007812,374.023438 L501.230469,374.023438 L501.230469,377.148438 L488.007812,377.148438 L488.007812,386.835938 L501.953125,386.835938 Z M511.605469,382.441406 L515.121094,382.441406 C515.329428,383.95183 516.087884,385.13997 517.396484,386.005859 C518.705085,386.871749 520.368479,387.304688 522.386719,387.304688 C524.300791,387.304688 525.879551,386.852218 527.123047,385.947266 C528.366543,385.042313 528.988281,383.899746 528.988281,382.519531 C528.988281,381.334629 528.565108,380.348311 527.71875,379.560547 C526.872392,378.772783 525.472666,378.164065 523.519531,377.734375 L520.394531,377.050781 C517.568996,376.438799 515.51498,375.488288 514.232422,374.199219 C512.949863,372.91015 512.308594,371.263031 512.308594,369.257812 C512.308594,366.927072 513.236319,365.026049 515.091797,363.554688 C516.947275,362.083326 519.333319,361.347656 522.25,361.347656 C525.062514,361.347656 527.38671,362.106112 529.222656,363.623047 C531.058603,365.139982 532.015625,367.096342 532.09375,369.492188 L528.578125,369.492188 C528.421874,367.942701 527.770839,366.725265 526.625,365.839844 C525.479161,364.954423 523.98829,364.511719 522.152344,364.511719 C520.394522,364.511719 518.916673,364.918616 517.71875,365.732422 C516.520827,366.546228 515.921875,367.669264 515.921875,369.101562 C515.921875,370.208339 516.332027,371.145829 517.152344,371.914062 C517.97266,372.682296 519.346345,373.274738 521.273438,373.691406 L524.398438,374.375 C527.341161,375.013024 529.444004,375.944004 530.707031,377.167969 C531.970058,378.391933 532.601562,379.99999 532.601562,381.992188 C532.601562,384.596367 531.654306,386.660149 529.759766,388.183594 C527.865225,389.707039 525.342464,390.46875 522.191406,390.46875 C519.118474,390.46875 516.628265,389.739591 514.720703,388.28125 C512.813142,386.822909 511.77474,384.876314 511.605469,382.441406 Z M553.71875,390 L550.203125,390 L550.203125,364.980469 L541.316406,364.980469 L541.316406,361.816406 L562.605469,361.816406 L562.605469,364.980469 L553.71875,364.980469 L553.71875,390 Z M597.90625,390 L594.390625,390 L594.390625,364.980469 L585.503906,364.980469 L585.503906,361.816406 L606.792969,361.816406 L606.792969,364.980469 L597.90625,364.980469 L597.90625,390 Z M627.011719,361.347656 C631.009135,361.347656 634.173165,362.656237 636.503906,365.273438 C638.834647,367.890638 640,371.43878 640,375.917969 C640,380.384137 638.834647,383.925768 636.503906,386.542969 C634.173165,389.160169 631.009135,390.46875 627.011719,390.46875 C623.014303,390.46875 619.850272,389.160169 617.519531,386.542969 C615.18879,383.925768 614.023438,380.384137 614.023438,375.917969 C614.023438,371.43878 615.18879,367.890638 617.519531,365.273438 C619.850272,362.656237 623.014303,361.347656 627.011719,361.347656 Z M627.011719,364.589844 C624.1341,364.589844 621.852222,365.608714 620.166016,367.646484 C618.479809,369.684255 617.636719,372.441389 617.636719,375.917969 C617.636719,379.381528 618.479809,382.132151 620.166016,384.169922 C621.852222,386.207692 624.1341,387.226562 627.011719,387.226562 C629.889337,387.226562 632.171216,386.207692 633.857422,384.169922 C635.543628,382.132151 636.386719,379.381528 636.386719,375.917969 C636.386719,372.441389 635.543628,369.684255 633.857422,367.646484 C632.171216,365.608714 629.889337,364.589844 627.011719,364.589844 Z M148.230469,420.941406 L148.230469,431.742188 L154.96875,431.742188 C156.778655,431.742188 158.175125,431.273442 159.158203,430.335938 C160.141281,429.398433 160.632812,428.063811 160.632812,426.332031 C160.632812,424.639314 160.118495,423.317713 159.089844,422.367188 C158.061193,421.416662 156.635426,420.941406 154.8125,420.941406 L148.230469,420.941406 Z M148.230469,434.847656 L148.230469,446 L144.714844,446 L144.714844,417.816406 L155.28125,417.816406 C158.002618,417.816406 160.18033,418.581373 161.814453,420.111328 C163.448576,421.641284 164.265625,423.675769 164.265625,426.214844 C164.265625,428.180999 163.764328,429.880201 162.761719,431.3125 C161.75911,432.744799 160.372405,433.740883 158.601562,434.300781 L165.125,446 L161.003906,446 L154.96875,434.847656 L148.230469,434.847656 Z M192.511719,442.835938 L192.511719,446 L175.050781,446 L175.050781,417.816406 L192.511719,417.816406 L192.511719,420.980469 L178.566406,420.980469 L178.566406,430.023438 L191.789062,430.023438 L191.789062,433.148438 L178.566406,433.148438 L178.566406,442.835938 L192.511719,442.835938 Z M207.027344,446 L203.511719,446 L203.511719,417.816406 L207.027344,417.816406 L207.027344,446 Z M246.640625,446 L243.359375,446 L243.359375,424.28125 L243.222656,424.28125 L234.238281,445.804688 L231.269531,445.804688 L222.285156,424.28125 L222.148438,424.28125 L222.148438,446 L218.867188,446 L218.867188,417.816406 L222.949219,417.816406 L232.675781,441.332031 L232.832031,441.332031 L242.558594,417.816406 L246.640625,417.816406 L246.640625,446 Z M276.800781,446 L276.371094,444.779297 C276.084634,443.965491 275.755861,443.028 275.384766,441.966797 C275.01367,440.905594 274.684897,439.968103 274.398438,439.154297 L273.96875,437.933594 L262.757812,437.933594 L259.925781,446 L256.234375,446 L266.625,417.816406 L270.101562,417.816406 L280.492188,446 L276.800781,446 Z M268.304688,422.09375 L267.845703,423.392578 C267.539712,424.258468 267.165367,425.329421 266.722656,426.605469 C266.279946,427.881517 265.833987,429.157546 265.384766,430.433594 C264.935545,431.709642 264.557944,432.780595 264.251953,433.646484 L263.792969,434.945312 L272.933594,434.945312 L268.421875,422.09375 L268.304688,422.09375 Z M313.074219,434.339844 C313.074219,438.141946 312.022797,441.113922 309.919922,443.255859 C307.817047,445.397797 304.884133,446.46875 301.121094,446.46875 C297.188782,446.46875 294.054048,445.137383 291.716797,442.474609 C289.379546,439.811836 288.210938,436.240908 288.210938,431.761719 C288.210938,427.360655 289.37629,423.858086 291.707031,421.253906 C294.037772,418.649727 297.175762,417.347656 301.121094,417.347656 C304.167984,417.347656 306.762359,418.184236 308.904297,419.857422 C311.046235,421.530607 312.377602,423.766913 312.898438,426.566406 L309.207031,426.566406 C308.621091,424.665355 307.621752,423.194016 306.208984,422.152344 C304.796217,421.110672 303.10027,420.589844 301.121094,420.589844 C298.217433,420.589844 295.942066,421.576162 294.294922,423.548828 C292.647778,425.521494 291.824219,428.252587 291.824219,431.742188 C291.824219,435.283872 292.657544,438.083323 294.324219,440.140625 C295.990894,442.197927 298.256496,443.226562 301.121094,443.226562 C303.621106,443.226562 305.652336,442.487638 307.214844,441.009766 C308.777352,439.531894 309.558594,437.614595 309.558594,435.257812 L309.558594,434.75 L301.609375,434.75 L301.609375,431.664062 L313.074219,431.664062 L313.074219,434.339844 Z M327.453125,446 L323.9375,446 L323.9375,417.816406 L327.453125,417.816406 L327.453125,446 Z M342.769531,446 L339.292969,446 L339.292969,417.816406 L342.710938,417.816406 L358.140625,439.945312 L358.316406,439.945312 L358.316406,417.816406 L361.792969,417.816406 L361.792969,446 L358.375,446 L342.945312,423.949219 L342.769531,423.949219 L342.769531,446 Z M391.09375,442.835938 L391.09375,446 L373.632812,446 L373.632812,417.816406 L391.09375,417.816406 L391.09375,420.980469 L377.148438,420.980469 L377.148438,430.023438 L390.371094,430.023438 L390.371094,433.148438 L377.148438,433.148438 L377.148438,442.835938 L391.09375,442.835938 Z M420.183594,446 L416.667969,446 L416.667969,417.816406 L433.777344,417.816406 L433.777344,420.980469 L420.183594,420.980469 L420.183594,430.667969 L432.664062,430.667969 L432.664062,433.792969 L420.183594,433.792969 L420.183594,446 Z M461.261719,442.835938 L461.261719,446 L444.152344,446 L444.152344,417.816406 L447.667969,417.816406 L447.667969,442.835938 L461.261719,442.835938 Z M489.820312,446 L489.390625,444.779297 C489.104165,443.965491 488.775392,443.028 488.404297,441.966797 C488.033201,440.905594 487.704429,439.968103 487.417969,439.154297 L486.988281,437.933594 L475.777344,437.933594 L472.945312,446 L469.253906,446 L479.644531,417.816406 L483.121094,417.816406 L493.511719,446 L489.820312,446 Z M481.324219,422.09375 L480.865234,423.392578 C480.559243,424.258468 480.184898,425.329421 479.742188,426.605469 C479.299477,427.881517 478.853518,429.157546 478.404297,430.433594 C477.955076,431.709642 477.577475,432.780595 477.271484,433.646484 L476.8125,434.945312 L485.953125,434.945312 L481.441406,422.09375 L481.324219,422.09375 Z M512.1875,446 L508.710938,446 L498.320312,417.816406 L502.011719,417.816406 L510.390625,441.722656 L510.507812,441.722656 L518.886719,417.816406 L522.578125,417.816406 L512.1875,446 Z M544.066406,417.347656 C548.063822,417.347656 551.227853,418.656237 553.558594,421.273438 C555.889335,423.890638 557.054688,427.43878 557.054688,431.917969 C557.054688,436.384137 555.889335,439.925768 553.558594,442.542969 C551.227853,445.160169 548.063822,446.46875 544.066406,446.46875 C540.06899,446.46875 536.90496,445.160169 534.574219,442.542969 C532.243478,439.925768 531.078125,436.384137 531.078125,431.917969 C531.078125,427.43878 532.243478,423.890638 534.574219,421.273438 C536.90496,418.656237 540.06899,417.347656 544.066406,417.347656 Z M544.066406,420.589844 C541.188788,420.589844 538.906909,421.608714 537.220703,423.646484 C535.534497,425.684255 534.691406,428.441389 534.691406,431.917969 C534.691406,435.381528 535.534497,438.132151 537.220703,440.169922 C538.906909,442.207692 541.188788,443.226562 544.066406,443.226562 C546.944025,443.226562 549.225903,442.207692 550.912109,440.169922 C552.598316,438.132151 553.441406,435.381528 553.441406,431.917969 C553.441406,428.441389 552.598316,425.684255 550.912109,423.646484 C549.225903,421.608714 546.944025,420.589844 544.066406,420.589844 Z M571.316406,420.941406 L571.316406,431.742188 L578.054688,431.742188 C579.864592,431.742188 581.261063,431.273442 582.244141,430.335938 C583.227218,429.398433 583.71875,428.063811 583.71875,426.332031 C583.71875,424.639314 583.204432,423.317713 582.175781,422.367188 C581.14713,421.416662 579.721363,420.941406 577.898438,420.941406 L571.316406,420.941406 Z M571.316406,434.847656 L571.316406,446 L567.800781,446 L567.800781,417.816406 L578.367188,417.816406 C581.088555,417.816406 583.266268,418.581373 584.900391,420.111328 C586.534513,421.641284 587.351562,423.675769 587.351562,426.214844 C587.351562,428.180999 586.850265,429.880201 585.847656,431.3125 C584.845047,432.744799 583.458342,433.740883 581.6875,434.300781 L588.210938,446 L584.089844,446 L578.054688,434.847656 L571.316406,434.847656 Z M600.480469,446.195312 C599.855466,446.195312 599.328127,445.980471 598.898438,445.550781 C598.468748,445.121092 598.253906,444.593753 598.253906,443.96875 C598.253906,443.343747 598.468748,442.816408 598.898438,442.386719 C599.328127,441.957029 599.855466,441.742188 600.480469,441.742188 C601.105472,441.742188 601.63281,441.957029 602.0625,442.386719 C602.49219,442.816408 602.707031,443.343747 602.707031,443.96875 C602.707031,444.593753 602.49219,445.121092 602.0625,445.550781 C601.63281,445.980471 601.105472,446.195312 600.480469,446.195312 Z" id="100,000-seeds.-6-far"></path>
        </g>
    </g>
</svg>