<?xml version="1.0" encoding="UTF-8"?>
<svg width="301px" height="24px" viewBox="0 0 301 24" version="1.1" xmlns="http://www.w3.org/2000/svg" xmlns:xlink="http://www.w3.org/1999/xlink">
    <!-- Generator: Sketch 51.3 (57544) - http://www.bohemiancoding.com/sketch -->
    <title>Group 43</title>
    <desc>Created with Sketch.</desc>
    <defs>
        <polygon id="path-1" points="0.0722138298 0.144557143 15.8867422 0.144557143 15.8867422 18.8571429 0.0722138298 18.8571429"></polygon>
        <polygon id="path-3" points="0.333350709 0.218571429 3.74323369 0.218571429 3.74323369 3.62524286 0.333350709 3.62524286"></polygon>
    </defs>
    <g id="Page-1" stroke="none" stroke-width="1" fill="none" fill-rule="evenodd">
        <g id="2.0_LP_Mobile_DanBarber" transform="translate(-23.000000, -186.000000)">
            <g id="Group-43" transform="translate(23.000000, 186.000000)">
                <path d="M6.14409681,19.7889 C2.8264656,19.7889 0.181628723,17.0764714 0.0704975177,16.9616143 L0.000128723404,16.8879 L1.49889823,15.4479 L1.5696961,15.5203286 C1.59115,15.5421857 3.73139113,17.7107571 6.14409681,17.7107571 C7.15371738,17.7107571 8.03161099,17.4017571 8.55379894,16.8626143 C8.93052943,16.4730429 9.11160035,15.9716143 9.09143369,15.3724714 C9.04552234,14.0014714 7.65960035,13.5231857 5.38205426,12.8987571 C3.38941596,12.3519 1.13117837,11.7330429 0.699954965,9.62961429 C0.49356844,8.62075714 0.73771383,7.62732857 1.38733794,6.8319 C2.25922447,5.76432857 3.78974574,5.12704286 5.48031312,5.12704286 C8.02646206,5.12704286 10.3147351,6.5319 10.4108486,6.5919 L10.4975223,6.64547143 L9.39736631,8.40818571 L9.31069255,8.35547143 C9.2922422,8.3439 7.41159326,7.20475714 5.48031312,7.20475714 C4.42392305,7.20475714 3.47351525,7.56518571 2.99938404,8.1459 C2.74150816,8.46132857 2.65612163,8.81061429 2.73850461,9.21261429 C2.91356844,10.0667571 4.38015709,10.4687571 5.9334195,10.8947571 C8.22212163,11.5226143 11.0707706,12.3039 11.1707457,15.3030429 C11.2097918,16.4704714 10.8219053,17.5093286 10.0491358,18.3073286 C9.1244727,19.2626143 7.73726348,19.7889 6.14409681,19.7889" id="Fill-1" fill="#FFFFFF"></path>
                <path d="M44.1767138,19.8609 C43.9681819,19.8609 43.7545011,19.8536143 43.5416784,19.8390429 C39.7164479,19.5784714 36.9403131,16.4824714 36.9403131,12.4770429 C36.9403131,8.32247143 39.9670294,5.06832857 43.8317351,5.06832857 C45.6677599,5.06832857 47.2965401,5.75104286 48.5417245,7.0419 C49.8984691,8.44847143 50.6326216,10.4464714 50.5549585,12.5233286 L50.5167706,13.5531857 L39.1689443,13.5519 C39.6186181,16.2377571 41.7502777,17.5727571 43.6875649,17.7047571 C43.8463238,17.7154714 44.0067989,17.7210429 44.1634124,17.7210429 C46.4469656,17.7210429 47.917845,16.5797571 48.5914975,15.8991857 L48.6631535,15.8271857 L50.1859514,17.3314714 L50.1138663,17.4039 C49.2055082,18.3214714 47.2261713,19.8609 44.1767138,19.8609 Z M48.3627989,11.4141857 C48.2057564,10.2994714 47.7243309,9.27775714 46.999189,8.52604286 C46.1672067,7.66375714 45.0721996,7.20775714 43.8317351,7.20775714 C41.4954053,7.20775714 39.5941606,8.93104286 39.1706606,11.4129 L48.3627989,11.4141857 Z" id="Fill-3" fill="#FFFFFF"></path>
                <path d="M61.1809039,19.8609 C60.972372,19.8609 60.7586911,19.8536143 60.5458684,19.8390429 C56.721067,19.5784714 53.9449323,16.4824714 53.9449323,12.4770429 C53.9449323,8.32247143 56.9716486,5.06832857 60.8359252,5.06832857 C62.67195,5.06832857 64.3007301,5.75104286 65.5459145,7.0419 C66.9026592,8.44847143 67.6368117,10.4464714 67.5595777,12.5233286 L67.5209606,13.5531857 L56.1735635,13.5519 C56.6232372,16.2377571 58.7544677,17.5727571 60.691755,17.7047571 C60.8522301,17.7159 61.0135635,17.7214714 61.1714642,17.7214714 C63.4520138,17.7214714 64.9224642,16.5797571 65.5956876,15.8991857 L65.6677727,15.8271857 L67.1905706,17.3314714 L67.1184855,17.4039 C66.2096982,18.3214714 64.2303613,19.8609 61.1809039,19.8609 Z M65.366989,11.4141857 C65.2099465,10.2994714 64.7285209,9.27775714 64.0033791,8.52604286 C63.1718259,7.66375714 62.0763897,7.20775714 60.8359252,7.20775714 C58.5000245,7.20775714 56.5987798,8.93104286 56.1752798,11.4129 L65.366989,11.4141857 Z" id="Fill-5" fill="#FFFFFF"></path>
                <path d="M77.7673436,19.8757286 C74.9212691,19.8757286 73.2221202,18.2403 73.2221202,15.5017286 L73.2221202,7.67687143 L71.1754181,7.67687143 L71.1754181,5.43587143 L73.2216911,5.43587143 L73.2216911,1.26801429 L75.4657691,1.26801429 L75.4657691,5.43587143 L79.8556663,5.43587143 L79.8556663,7.6773 L75.4657691,7.6773 L75.4657691,15.2081571 C75.4657691,16.3845857 75.8133223,17.1478714 76.4994181,17.4765857 C76.8555528,17.6471571 77.3030812,17.7337286 77.8295599,17.7337286 C78.5306734,17.7337286 79.2480918,17.5785857 79.7265138,17.4478714 L79.8556663,17.4127286 L79.8556663,19.5311571 L79.7844394,19.5534429 C79.122372,19.7643 78.4246911,19.8757286 77.7673436,19.8757286" id="Fill-7" fill="#FFFFFF"></path>
                <polygon id="Fill-9" fill="#FFFFFF" points="27.6238709 19.4802429 24.0998532 9.07581429 20.5758355 19.4802429 18.3141652 19.4802429 13.5513993 5.46252857 15.8564064 5.46252857 19.5039986 16.1631 23.0627716 5.46252857 25.1365057 5.46252857 28.6957078 16.1631 32.3433 5.46252857 34.647878 5.46252857 29.8851121 19.4802429"></polygon>
                <path d="M120.425851,19.8609 C120.217319,19.8609 120.003638,19.8536143 119.790815,19.8390429 C115.966014,19.5784714 113.189879,16.4824714 113.189879,12.4770429 C113.189879,8.32247143 116.216595,5.06832857 120.080872,5.06832857 C121.916897,5.06832857 123.545677,5.75104286 124.790861,7.0419 C126.147606,8.44847143 126.881759,10.4464714 126.804524,12.5233286 L126.765907,13.5531857 L115.41851,13.5519 C115.868184,16.2377571 117.999415,17.5727571 119.936702,17.7047571 C120.097177,17.7159 120.25851,17.7214714 120.415982,17.7214714 C122.696532,17.7214714 124.166982,16.5797571 124.840634,15.8991857 L124.91272,15.8271857 L126.435517,17.3314714 L126.363432,17.4039 C125.454645,18.3214714 123.475308,19.8609 120.425851,19.8609 Z M124.611936,11.4141857 C124.455322,10.2994714 123.973468,9.27818571 123.248326,8.52604286 C122.416344,7.66375714 121.320907,7.20775714 120.080872,7.20775714 C117.744971,7.20775714 115.843727,8.93104286 115.420227,11.4129 L124.611936,11.4141857 Z" id="Fill-11" fill="#FFFFFF"></path>
                <path d="M137.430341,19.8609 C137.221809,19.8609 137.008128,19.8536143 136.795306,19.8390429 C132.970504,19.5784714 130.19437,16.4824714 130.19437,12.4770429 C130.19437,8.32247143 133.221086,5.06832857 137.085362,5.06832857 C138.921387,5.06832857 140.550167,5.75104286 141.795352,7.0419 C143.152096,8.44847143 143.886249,10.4464714 143.809015,12.5233286 L143.770398,13.5531857 L132.423001,13.5519 C132.872674,16.2377571 135.003905,17.5727571 136.941192,17.7047571 C137.102955,17.7159 137.265575,17.7214714 137.424763,17.7214714 C139.701022,17.7214714 141.171472,16.5797571 141.845125,15.8991857 L141.91721,15.8267571 L143.439579,17.3314714 L143.367923,17.4039 C142.459135,18.3214714 140.47894,19.8609 137.430341,19.8609 Z M141.616426,11.4141857 C141.459384,10.2994714 140.977958,9.27818571 140.252816,8.52604286 C139.420834,7.66375714 138.325398,7.20775714 137.085362,7.20775714 C134.749462,7.20775714 132.848217,8.93104286 132.424717,11.4129 L141.616426,11.4141857 Z" id="Fill-13" fill="#FFFFFF"></path>
                <path d="M103.209181,19.4802429 L103.209181,5.46252857 L105.35071,5.46252857 L105.35071,8.60695714 C106.459876,6.47181429 108.497997,5.16424286 110.765245,5.16424286 C110.849344,5.16424286 110.933873,5.16552857 111.01883,5.16895714 L111.11666,5.17324286 L111.11666,7.58652857 L110.853206,7.58652857 C107.241227,7.58652857 105.35071,11.1591 105.35071,14.6888143 L105.35071,19.4802429 L103.209181,19.4802429 Z" id="Fill-15" fill="#FFFFFF"></path>
                <path d="M158.311337,19.4802429 L158.311337,11.2829571 C158.311337,8.73638571 156.919837,7.21624286 154.588227,7.21624286 C151.908206,7.21624286 150.24939,9.79067143 150.24939,12.1765286 L150.24939,19.4802429 L147.986862,19.4802429 L147.986862,5.46252857 L150.24939,5.46252857 L150.24939,7.59724286 C151.340106,6.0111 153.025525,5.14238571 155.032323,5.14238571 C158.400156,5.14238571 160.575582,7.35295714 160.575582,10.7738143 L160.575582,19.4802429 L158.311337,19.4802429 Z" id="Fill-17" fill="#FFFFFF"></path>
                <g id="Group-21" transform="translate(83.241135, 4.924243)">
                    <mask id="mask-2" fill="white">
                        <use xlink:href="#path-1"></use>
                    </mask>
                    <g id="Clip-20"></g>
                    <path d="M7.22279894,11.5959857 C4.55779539,11.5959857 2.38966418,9.5067 2.38966418,6.93784286 C2.38966418,4.36941429 4.55779539,2.2797 7.22279894,2.2797 C9.88780248,2.2797 12.0559337,4.36941429 12.0559337,6.93784286 C12.0559337,9.5067 9.88780248,11.5959857 7.22279894,11.5959857 M15.8867422,1.98355714 L14.1983202,0.315985714 C13.3899372,0.876128571 12.7785011,1.66384286 12.4082067,2.63455714 C11.9688309,2.15584286 9.96031667,0.144557143 6.78685567,0.144557143 C3.08434149,0.144557143 0.0722138298,3.2487 0.0722138298,6.94684286 C0.0722138298,10.6449857 3.00624929,13.6535571 6.9228734,13.6535571 C10.3718025,13.6535571 12.0971252,11.4991286 12.0971252,11.4991286 L12.0971252,11.7168429 C12.0971252,13.2969857 11.6774869,14.5287 10.8497954,15.3785571 C9.95602589,16.2922714 8.78979184,16.7178429 7.18032021,16.7178429 C4.3312422,16.7178429 2.81230603,15.3755571 2.38966418,15.1231286 L1.14705426,16.8652714 C1.52378475,17.0679857 3.52929539,18.8572714 7.18032021,18.8572714 C9.37462518,18.8572714 11.0763486,18.2075571 12.3833202,16.8721286 C13.5971819,15.6254143 14.2390826,13.8429857 14.2390826,11.7168429 L14.2716926,5.49698571 C14.2716926,3.85512857 14.8505188,2.6397 15.8867422,1.98355714" id="Fill-19" fill="#FFFFFF" mask="url(#mask-2)"></path>
                </g>
                <g id="Group-24" transform="translate(160.046099, 0.209957)">
                    <mask id="mask-4" fill="white">
                        <use xlink:href="#path-3"></use>
                    </mask>
                    <g id="Clip-23"></g>
                    <path d="M1.58926206,1.83381429 L1.9475422,1.83381429 C2.11745709,1.83381429 2.23802801,1.80767143 2.29466631,1.75667143 C2.35859894,1.70481429 2.38906348,1.6371 2.38906348,1.55395714 C2.38906348,1.49867143 2.37747837,1.44938571 2.34744291,1.4061 C2.31740745,1.36324286 2.27578688,1.33195714 2.21914858,1.31138571 C2.16637199,1.29124286 2.0685422,1.27924286 1.92136844,1.27924286 L1.58926206,1.27924286 L1.58926206,1.83381429 Z M1.28762021,2.86538571 L1.28762021,1.0311 L1.92136844,1.0311 C2.13633652,1.0311 2.29080461,1.04824286 2.38906348,1.08252857 C2.48732234,1.11638571 2.56241099,1.17552857 2.61904929,1.26038571 C2.67568759,1.34224286 2.70572305,1.43267143 2.70572305,1.52867143 C2.70572305,1.66152857 2.65680816,1.77938571 2.56241099,1.87838571 C2.46844291,1.97781429 2.3397195,2.03267143 2.18138972,2.04595714 C2.24575142,2.07295714 2.29466631,2.1051 2.3397195,2.14281429 C2.41180461,2.21524286 2.50191099,2.33567143 2.60789326,2.5071 L2.83015567,2.86538571 L2.46844291,2.86538571 L2.30968404,2.57524286 C2.17752801,2.3481 2.07583652,2.2071 1.99645709,2.14838571 C1.9436805,2.10724286 1.86473014,2.08624286 1.75917695,2.08624286 L1.58926206,2.08624286 L1.58926206,2.86538571 L1.28762021,2.86538571 Z M2.03807766,0.499242857 C1.80036844,0.499242857 1.56652092,0.563528571 1.34039681,0.685671429 C1.11041099,0.806528571 0.932772695,0.982671429 0.808769149,1.2111 C0.676613121,1.43995714 0.612251418,1.67652857 0.612251418,1.92338571 C0.612251418,2.16852857 0.676613121,2.40295714 0.801045745,2.62967143 C0.925478369,2.85467143 1.10268759,3.02824286 1.32924078,3.15424286 C1.5592266,3.28238571 1.79307411,3.34324286 2.03807766,3.34324286 C2.28308121,3.34324286 2.52079043,3.28238571 2.74734362,3.15424286 C2.97003511,3.02824286 3.14724433,2.85467143 3.27167695,2.62967143 C3.3956805,2.40295714 3.4600422,2.16852857 3.4600422,1.92338571 C3.4600422,1.67652857 3.3956805,1.43995714 3.27167695,1.2111 C3.13952092,0.982671429 2.9661734,0.806528571 2.73575851,0.685671429 C2.5096344,0.563528571 2.27578688,0.499242857 2.03807766,0.499242857 Z M2.03807766,0.218528571 C2.32470177,0.218528571 2.60403156,0.291814286 2.87563794,0.437957143 C3.15067695,0.5841 3.36221241,0.795814286 3.51281879,1.06881429 C3.66771596,1.34224286 3.74323369,1.62595714 3.74323369,1.92338571 C3.74323369,2.21695714 3.67114858,2.49852857 3.5166805,2.76981429 C3.36564504,3.04024286 3.15840035,3.25238571 2.88679397,3.4011 C2.61518759,3.55152857 2.33242518,3.62524286 2.03807766,3.62524286 C1.74029752,3.62524286 1.46096773,3.55152857 1.18592872,3.4011 C0.917754965,3.25238571 0.710510284,3.04024286 0.556042199,2.76981429 C0.405006738,2.49852857 0.333350709,2.21695714 0.333350709,1.92338571 C0.333350709,1.62595714 0.40886844,1.34224286 0.559474823,1.06881429 C0.714371986,0.795814286 0.925478369,0.5841 1.20094645,0.437957143 C1.47255284,0.291814286 1.75145355,0.218528571 2.03807766,0.218528571 Z" id="Fill-22" fill="#FFFFFF" mask="url(#mask-4)"></path>
                </g>
                <path d="M211.445998,10.7972571 L206.684949,10.7972571 L206.684949,5.8044 L211.445998,5.8044 C212.87397,5.8044 214.183087,6.63668571 214.183087,8.30082857 C214.183087,9.96497143 212.87397,10.7972571 211.445998,10.7972571 M216.682895,8.30082857 C216.682895,5.20954286 214.183087,3.42668571 211.327144,3.42668571 L204.185569,3.42668571 L204.185569,20.7829714 L206.684949,20.7829714 L206.684949,13.1749714 L208.827335,13.1749714 L213.826094,20.7829714 L216.563612,20.7829714 L216.563612,20.3076857 L211.684137,13.1749714 C214.183087,13.0562571 216.682895,11.2725429 216.682895,8.30082857" id="Fill-37" fill="#FFFFFF"></path>
                <path d="M227.871834,18.8811 C223.944054,18.8811 221.206536,16.0276714 221.206536,12.1289571 C221.206536,8.18181429 223.944054,5.32881429 227.871834,5.32881429 C231.799185,5.32881429 234.513104,8.18181429 234.513104,12.1289571 C234.513104,16.0276714 231.799185,18.8811 227.871834,18.8811 M227.871834,2.9511 C222.801419,2.9511 218.707157,7.04052857 218.707157,12.1045286 C218.707157,17.1693857 222.801419,21.2588143 227.871834,21.2588143 C232.94182,21.2588143 237.036511,17.1693857 237.036511,12.1045286 C237.036511,7.04052857 232.94182,2.9511 227.871834,2.9511" id="Fill-38" fill="#FFFFFF"></path>
                <polygon id="Fill-39" fill="#FFFFFF" points="254.414772 20.7831 258.223268 3.42681429 255.700289 3.42681429 252.986371 15.9089571 249.67775 3.42681429 247.035488 3.42681429 243.67924 15.9089571 240.98935 3.42681429 238.465942 3.42681429 242.274867 20.7831 244.774247 20.7831 248.345034 7.94395714 251.915392 20.7831"></polygon>
                <path d="M289.405998,3.42681429 L289.405998,8.18181429 L291.596012,8.18181429 L291.596012,5.75695714 L298.07037,5.75695714 C297.094647,7.87281429 294.428785,13.6739571 292.143087,20.3078143 L292.143087,20.7831 L294.523611,20.7831 C297.379984,11.9862429 300.593778,5.78052857 300.593778,5.78052857 L300.593778,3.42681429 L289.405998,3.42681429 Z" id="Fill-40" fill="#FFFFFF"></path>
                <polygon id="Fill-41" fill="#FFFFFF" points="261.675372 11.6321985 285.953465 11.6321985 285.953465 11 261.675372 11"></polygon>
                <polygon id="Fill-42" fill="#FFFFFF" points="174.629302 16.3197429 178.90249 12.0250286 174.629302 7.75688571 176.391955 5.99631429 180.691746 10.2644571 184.964934 5.99631429 186.861459 7.8636 182.588271 12.1583143 186.861459 16.4264571 185.071774 18.2136 180.798586 13.9188857 176.525398 18.2136"></polygon>
            </g>
        </g>
    </g>
</svg>